<?xml version="1.0" encoding="UTF-8" standalone="no"?>
<svg
   clip-rule="evenodd"
   fill-rule="evenodd"
   stroke-linejoin="round"
   stroke-miterlimit="2"
   viewBox="0 0 16 16"
   version="1.1"
   id="svg1"
   sodipodi:docname="bluetooth-disabled-symbolic.svg"
   inkscape:version="1.3.2 (091e20ef0f, 2023-11-25)"
   xmlns:inkscape="http://www.inkscape.org/namespaces/inkscape"
   xmlns:sodipodi="http://sodipodi.sourceforge.net/DTD/sodipodi-0.dtd"
   xmlns="http://www.w3.org/2000/svg"
   xmlns:svg="http://www.w3.org/2000/svg">
  <defs
     id="defs1" />
  <sodipodi:namedview
     id="namedview1"
     pagecolor="#505050"
     bordercolor="#eeeeee"
     borderopacity="1"
     inkscape:showpageshadow="0"
     inkscape:pageopacity="0"
     inkscape:pagecheckerboard="0"
     inkscape:deskcolor="#505050"
     inkscape:zoom="13.439352"
     inkscape:cx="1.6741879"
     inkscape:cy="9.0406146"
     inkscape:window-width="1260"
     inkscape:window-height="639"
     inkscape:window-x="0"
     inkscape:window-y="0"
     inkscape:window-maximized="1"
     inkscape:current-layer="svg1" />
  <path
     id="path15"
     style="opacity:1;fill:#dfdfdf;fill-opacity:0.301961"
     d="M 7.1972656,-9.7090591e-4 C 6.7592686,0.00102909 6.4003906,0.36181296 6.4003906,0.79981034 V 6.3017634 L 6.15625,6.1318415 4.4589844,4.9423884 2.7617188,3.7529353 c -0.1339994,-0.095 -0.2939856,-0.1445312 -0.4589844,-0.1445312 -0.4389976,0 -0.8007813,0.3607836 -0.8007813,0.8007812 0,0.2609982 0.1277981,0.5062506 0.3417969,0.65625 L 3.5410156,6.2548884 5.2382812,7.4443415 6.03125,7.9990291 8,9.3779353 l 1.7929688,1.2539057 0.041016,0.0293 0.8476566,0.59375 -0.002,0.002 1.359374,0.949219 0.421876,0.296875 0.767578,0.537109 c 0.0038,0.0027 0.0078,0.0052 0.01172,0.0078 0.131587,0.08974 0.286999,0.136719 0.447266,0.136719 0.438999,0 0.800781,-0.360783 0.800781,-0.800782 0,-0.260996 -0.127798,-0.50625 -0.341797,-0.65625 l -1.6875,-1.183593 -0.0098,-0.0059 -1.517578,-1.0644527 -0.179688,-0.1249999 c -0.01675,-0.011875 -0.03521,-0.02471 -0.05273,-0.035156 L 8.8242188,7.9990291 12.458984,5.4541072 c 0.214,-0.1499991 0.341797,-0.3922984 0.341797,-0.6542969 0,-0.2379985 -0.106062,-0.4651886 -0.289062,-0.6171875 L 7.7128906,0.18262284 C 7.5688918,0.06262356 7.3852644,-0.0019709 7.1972656,-9.7090591e-4 Z M 8,2.5087947 10.681641,4.7431697 8,6.6201228 Z M 5.5507812,8.3349665 3.5410156,9.7431693 c -0.2139988,0.149999 -0.3417969,0.3942527 -0.3417968,0.6562497 0,0.438997 0.3617836,0.800782 0.8007812,0.800782 0.1649988,0 0.324985,-0.05053 0.4589844,-0.144532 L 6.4003906,9.6962943 v 5.5039067 c 0,0.438994 0.3598307,0.800781 0.7988282,0.800781 0.1869989,0 0.370673,-0.0675 0.5136718,-0.1875 L 11.599609,12.571294 10.242188,11.622076 8,13.489263 V 10.04981 Z" />
  <path
     style="fill:#ffffff;stroke:#000000;stroke-width:0.1;stroke-dasharray:none"
     d="M -6.9655332,7.6866497 -6.07076,8.3133503"
     id="path3" />
  <path
     style="opacity:0.175815;fill:#00ff00;stroke:#000000;stroke-width:0.1;stroke-dasharray:none"
     d="m -7.9422956,9.6163748 -3.6442754,-1.5862164 1.05253,-1.929999 1.7245111,-0.4069738 1.1568971,0.4895022 0.7235848,0.5850352 0.199747,1.1161849 z"
     id="path6"
     sodipodi:nodetypes="cccccccc" />
  <path
     style="opacity:0.175815;fill:#00ff00;stroke:#000000;stroke-width:0.1;stroke-dasharray:none"
     d="m -8.4489194,11.0407 -3.6442756,-1.5862157 1.05253,-1.929999 1.7245113,-0.4069738 1.1568971,0.4895022 0.7235848,0.5850352 0.199747,1.1161849 z"
     id="path8"
     sodipodi:nodetypes="cccccccc" />
  <path
     d="m -14.251803,-6.8819339 0.917968,-1.3125 -1.697265,-1.1894531 c -0.134,-0.095 -0.293985,-0.1445313 -0.458985,-0.1445313 -0.438998,0 -0.800781,0.3607825 -0.800781,0.8007813 0,0.2609991 0.127798,0.5062503 0.341797,0.65625 z"
     style="opacity:0.40229;fill:#ffff00"
     id="path20" />
  <path
     d="m -10.595553,-13.137793 c -0.437999,0.002 -0.796875,0.362782 -0.796875,0.800781 v 5.5019531 l -0.244141,-0.1699219 -0.917969,1.3125 0.792969,0.5546875 -2.490234,1.7441411 c -0.214,0.149999 -0.341797,0.39425 -0.341797,0.65625 0,0.438997 0.361782,0.800781 0.800781,0.800781 0.164999,0 0.324985,-0.05053 0.458984,-0.144531 l 1.941407,-1.359375 v 5.503906 c 0,0.438997 0.359829,0.800781 0.798828,0.800781 0.186999,0 0.370672,-0.0675 0.513672,-0.1875 l 4.7988279,-4 c 0.183,-0.151 0.289062,-0.377234 0.289062,-0.615234 0,-0.262 -0.127797,-0.506297 -0.341797,-0.654297 l -3.6347652,-2.5449221 3.6347652,-2.5449219 c 0.214,-0.1499994 0.341797,-0.3922975 0.341797,-0.6542969 0,-0.2379991 -0.106062,-0.465188 -0.289062,-0.6171875 l -4.7988279,-3.9999994 c -0.144,-0.12 -0.327626,-0.184594 -0.515625,-0.183594 z m 0.8027339,2.509765 2.681641,2.2343753 -2.681641,1.8769531 z m 0,6.869141 2.681641,1.8769528 -2.681641,2.23437502 z"
     style="opacity:0.40229;fill:#ffff00"
     id="path21" />
  <path
     d="m -6.2625451,-1.2872072 0.917969,-1.3125 -1.697266,-1.1894535 c -0.133999,-0.095 -0.293985,-0.144532 -0.458984,-0.144532 -0.4389995,0 -0.8007815,0.3607825 -0.8007815,0.8007825 0,0.260999 0.127797,0.506249 0.341797,0.65625 z"
     style="opacity:0.40229;fill:#ffff00"
     id="path22" />
  <path
     d="m -5.3445761,-2.5997072 -0.917969,1.3125 1.697266,1.18945302 c 0.134,0.095 0.293985,0.144531 0.458984,0.144531 0.438999,0 0.800782,-0.360782 0.800782,-0.800781 0,-0.26099902 -0.127798,-0.50625002 -0.341797,-0.65625002 z"
     style="opacity:0.40229;fill:#ffff00"
     id="path23" />
  <path
     d="m -12.554538,-5.6924809 0.917969,-1.3125 -1.697266,-1.1894535 c -0.133999,-0.095 -0.293985,-0.144532 -0.458984,-0.144532 -0.438999,0 -0.800781,0.3607825 -0.800781,0.8007825 0,0.260999 0.127797,0.506249 0.341797,0.65625 z"
     style="opacity:0.40229;fill:#ffff00"
     id="path24" />
  <path
     id="path1"
     style="opacity:1;fill:#dfdfdf;fill-opacity:0.301961"
     d="M 7.1972656,-9.7090591e-4 C 6.7592686,0.00102909 6.4003906,0.36181296 6.4003906,0.79981034 V 6.3017634 L 6.15625,6.1318415 4.4589844,4.9423884 2.7617188,3.7529353 c -0.1339994,-0.095 -0.2939856,-0.1445312 -0.4589844,-0.1445312 -0.4389976,0 -0.8007813,0.3607836 -0.8007813,0.8007812 0,0.2609982 0.1277981,0.5062506 0.3417969,0.65625 L 3.5410156,6.2548884 5.2382812,7.4443415 6.03125,7.9990291 8,9.3779353 l 1.7929688,1.2539057 0.041016,0.0293 0.8476566,0.59375 -0.002,0.002 1.359374,0.949219 0.421876,0.296875 0.767578,0.537109 c 0.0038,0.0027 0.0078,0.0052 0.01172,0.0078 0.131587,0.08974 0.286999,0.136719 0.447266,0.136719 0.438999,0 0.800781,-0.360783 0.800781,-0.800782 0,-0.260996 -0.127798,-0.50625 -0.341797,-0.65625 l -1.6875,-1.183593 -0.0098,-0.0059 -1.517578,-1.0644527 -0.179688,-0.1249999 c -0.01675,-0.011875 -0.03521,-0.02471 -0.05273,-0.035156 L 8.8242188,7.9990291 12.458984,5.4541072 c 0.214,-0.1499991 0.341797,-0.3922984 0.341797,-0.6542969 0,-0.2379985 -0.106062,-0.4651886 -0.289062,-0.6171875 L 7.7128906,0.18262284 C 7.5688918,0.06262356 7.3852644,-0.0019709 7.1972656,-9.7090591e-4 Z M 8,2.5087947 10.681641,4.7431697 8,6.6201228 Z M 5.5507812,8.3349665 3.5410156,9.7431693 c -0.2139988,0.149999 -0.3417969,0.3942527 -0.3417968,0.6562497 0,0.438997 0.3617836,0.800782 0.8007812,0.800782 0.1649988,0 0.324985,-0.05053 0.4589844,-0.144532 L 6.4003906,9.6962943 v 5.5039067 c 0,0.438994 0.3598307,0.800781 0.7988282,0.800781 0.1869989,0 0.370673,-0.0675 0.5136718,-0.1875 L 11.599609,12.571294 10.242188,11.622076 8,13.489263 V 10.04981 Z" />
</svg>
