<?xml version="1.0" encoding="UTF-8" standalone="no"?>
<svg
   viewBox="0 0 576 512"
   version="1.1"
   id="svg119"
   sodipodi:docname="bat-75.svg"
   inkscape:version="1.2.1 (9c6d41e410, 2022-07-14, custom)"
   xml:space="preserve"
   xmlns:inkscape="http://www.inkscape.org/namespaces/inkscape"
   xmlns:sodipodi="http://sodipodi.sourceforge.net/DTD/sodipodi-0.dtd"
   xmlns="http://www.w3.org/2000/svg"
   xmlns:svg="http://www.w3.org/2000/svg"><defs
     id="defs123" /><sodipodi:namedview
     id="namedview121"
     pagecolor="#ffffff"
     bordercolor="#ffffff"
     borderopacity="1"
     inkscape:showpageshadow="0"
     inkscape:pageopacity="0"
     inkscape:pagecheckerboard="0"
     inkscape:deskcolor="#ffffff"
     showgrid="false"
     showguides="false"
     inkscape:zoom="0.72011037"
     inkscape:cx="431.18391"
     inkscape:cy="41.660281"
     inkscape:window-width="2468"
     inkscape:window-height="1264"
     inkscape:window-x="26"
     inkscape:window-y="70"
     inkscape:window-maximized="0"
     inkscape:current-layer="svg119" /><!--! Font Awesome Pro 6.1.1 by @fontawesome - https://fontawesome.com License - https://fontawesome.com/license (Commercial License) Copyright 2022 Fonticons, Inc. --><path
     id="path1524"
     style="fill:#ffffff;stroke:none;stroke-width:77.0119;stroke-linecap:round;stroke-linejoin:round;stroke-dasharray:none;paint-order:markers stroke fill"
     d="m -610.65597,137.40641 a 60.63158,60.63158 0 0 0 -60.63086,60.63085 v 60.63086 60.63282 60.63086 a 60.63158,60.63158 0 0 0 60.63086,60.63085 h 60.63281 60.63086 60.63086 60.63281 60.63086 60.63282 60.63085 a 60.63158,60.63158 0 0 0 60.63086,-60.63085 v -30.31641 c 16.79493,0 30.316414,-13.51952 30.316414,-30.31445 v -60.63282 c 0,-16.79493 -13.521484,-30.31445 -30.316414,-30.31445 v -30.31641 a 60.63158,60.63158 0 0 0 -60.63086,-60.63085 h -60.63085 -60.63282 -60.63086 -60.63281 -60.63086 -60.63086 z m 0,60.63085 h 60.63281 60.63086 60.63086 60.63281 60.63086 60.63282 60.63085 v 60.63086 60.63282 60.63086 h -60.63085 -60.63282 -60.63086 -60.63281 -60.63086 -60.63086 -60.63281 v -60.63086 -60.63282 z" /><path
     style="fill:none;stroke:#ffffff;stroke-width:1px;stroke-linecap:butt;stroke-linejoin:miter;stroke-opacity:1"
     d="M -129.31691,134.7373 V 74.106455"
     id="path2382" /><path
     id="path2384"
     style="fill:#ffffff;stroke:none;stroke-width:32.2708;stroke-linecap:round;stroke-linejoin:round;stroke-dasharray:none;paint-order:markers stroke fill"
     d="M 698.7165,91.427734 A 54.857143,54.857143 0 0 0 643.85908,146.28516 V 201.14258 256 v 54.85742 54.85742 a 54.857143,54.857143 0 0 0 54.85742,54.85743 h 54.85742 54.85743 54.85546 54.85743 54.85742 54.85744 54.8574 54.8574 a 54.857143,54.857143 0 0 0 54.8574,-54.85743 v -54.85742 c 15.1955,0 27.4278,-12.23427 27.4278,-27.42969 v -54.85546 c 0,-15.19542 -12.2323,-27.42969 -27.4278,-27.42969 v -54.85742 a 54.857143,54.857143 0 0 0 -54.8574,-54.857426 h -54.8574 -54.8574 -54.85744 -54.85742 -54.85743 -54.85546 -54.85743 z m 0,54.857426 h 54.85742 54.85743 54.85546 54.85743 54.85742 54.85744 54.8574 54.8574 V 201.14258 256 v 54.85742 54.85742 h -54.8574 -54.8574 -54.85744 -54.85742 -54.85743 -54.85546 -54.85743 -54.85742 V 310.85742 256 201.14258 Z" /><path
     id="path1524-5"
     style="fill:#ffffff;fill-opacity:0.447406;stroke:none;stroke-width:77.0119;stroke-linecap:round;stroke-linejoin:round;stroke-dasharray:none;paint-order:markers stroke fill"
     d="m -618.56714,-208.4164 a 60.63158,60.63158 0 0 0 -60.63086,60.63085 v 60.630865 60.63282 60.63086 a 60.63158,60.63158 0 0 0 60.63086,60.63085 h 60.63282 60.63086 60.63086 60.63281 60.63086 60.63282 60.63085 a 60.63158,60.63158 0 0 0 60.63086,-60.63085 V 3.7925848 c 16.79493,0 30.31641,-13.51952 30.31641,-30.3144498 v -60.63282 c 0,-16.794935 -13.52148,-30.314455 -30.31641,-30.314455 v -30.31641 a 60.63158,60.63158 0 0 0 -60.63086,-60.63085 h -60.63085 -60.63282 -60.63086 -60.63281 -60.63086 -60.63086 z m 0,60.63085 h 60.63282 60.63086 60.63086 60.63281 60.63086 60.63282 60.63085 v 60.630865 60.63282 60.63086 h -60.63085 -60.63282 -60.63086 -60.63281 -60.63086 -60.63086 -60.63282 v -60.63086 -60.63282 z" /><rect
     style="fill:#ffffff;fill-opacity:1;stroke:none;stroke-width:105.294;stroke-linecap:round;stroke-linejoin:round;stroke-dasharray:none;paint-order:markers stroke fill"
     id="rect2762"
     width="199"
     height="180"
     x="75.286125"
     y="166"
     rx="0"
     ry="0" /></svg>
