<?xml version="1.0" encoding="UTF-8" standalone="no"?>
<svg
   viewBox="0 0 576 512"
   version="1.1"
   id="svg119"
   sodipodi:docname="bat-75.svg"
   inkscape:version="1.2.1 (9c6d41e410, 2022-07-14, custom)"
   xmlns:inkscape="http://www.inkscape.org/namespaces/inkscape"
   xmlns:sodipodi="http://sodipodi.sourceforge.net/DTD/sodipodi-0.dtd"
   xmlns="http://www.w3.org/2000/svg"
   xmlns:svg="http://www.w3.org/2000/svg">
  <defs
     id="defs123" />
  <sodipodi:namedview
     id="namedview121"
     pagecolor="#ffffff"
     bordercolor="#ffffff"
     borderopacity="1"
     inkscape:showpageshadow="0"
     inkscape:pageopacity="0"
     inkscape:pagecheckerboard="0"
     inkscape:deskcolor="#ffffff"
     showgrid="false"
     showguides="false"
     inkscape:zoom="0.94357405"
     inkscape:cx="123.46673"
     inkscape:cy="222.55805"
     inkscape:window-width="2468"
     inkscape:window-height="1264"
     inkscape:window-x="52"
     inkscape:window-y="44"
     inkscape:window-maximized="0"
     inkscape:current-layer="svg119" />
  <!--! Font Awesome Pro 6.1.1 by @fontawesome - https://fontawesome.com License - https://fontawesome.com/license (Commercial License) Copyright 2022 Fonticons, Inc. -->
  <path
     id="path1524"
     style="fill:#ffffff;stroke:none;stroke-width:77.0119;stroke-linecap:round;stroke-linejoin:round;stroke-dasharray:none;paint-order:markers stroke fill"
     d="m -586.06113,104.42188 a 60.63158,60.63158 0 0 0 -60.63086,60.63085 v 60.63086 60.63282 60.63086 a 60.63158,60.63158 0 0 0 60.63086,60.63085 h 60.63281 60.63086 60.63086 60.63281 60.63086 60.63282 60.63085 a 60.63158,60.63158 0 0 0 60.63086,-60.63085 v -30.31641 c 16.794928,0 30.316408,-13.51952 30.316408,-30.31445 v -60.63282 c 0,-16.79493 -13.52148,-30.31445 -30.316408,-30.31445 v -30.31641 a 60.63158,60.63158 0 0 0 -60.63086,-60.63085 h -60.63085 -60.63282 -60.63086 -60.63281 -60.63086 -60.63086 z m 0,60.63085 h 60.63281 60.63086 60.63086 60.63281 60.63086 60.63282 60.63085 v 60.63086 60.63282 60.63086 h -60.63085 -60.63282 -60.63086 -60.63281 -60.63086 -60.63086 -60.63281 v -60.63086 -60.63282 z" />
  <rect
     style="fill:#ffffff;stroke:none;stroke-width:112.298;stroke-linecap:round;stroke-linejoin:round;stroke-dasharray:none;paint-order:markers stroke fill"
     id="rect1582"
     width="288"
     height="141.47368"
     x="80.842102"
     y="185.26315"
     rx="0"
     ry="0" />
</svg>
