<?xml version="1.0" encoding="iso-8859-1"?>
<!-- Generator: Adobe Illustrator 19.0.0, SVG Export Plug-In . SVG Version: 6.00 Build 0)  -->
<svg version="1.1" id="Layer_1" xmlns="http://www.w3.org/2000/svg" xmlns:xlink="http://www.w3.org/1999/xlink" x="0px" y="0px"
	 viewBox="0 0 496 496" style="enable-background:new 0 0 496 496;" xml:space="preserve">
<g>
	<path style="fill:#ffffff;" d="M88,161.6c-12.8,0-24,10.4-24,23.2v125.6c0,12.8,11.2,23.2,24,23.2s24-10.4,24-23.2V184.8
		C112,172,100.8,161.6,88,161.6z"/>
	<path style="fill:#ffffff;" d="M168,161.6c-12.8,0-24,10.4-24,23.2v125.6c0,12.8,11.2,23.2,24,23.2s24-10.4,24-23.2V184.8
		C192,172,180.8,161.6,168,161.6z"/>
	<path style="fill:#ffffff;" d="M240,161.6c-12.8,0-24,10.4-24,23.2v125.6c0,12.8,11.2,23.2,24,23.2c12.8,0,24-10.4,24-23.2V184.8
		C264,172,252.8,161.6,240,161.6z"/>
	<path style="fill:#ffffff;" d="M312,161.6c-12.8,0-24,10.4-24,23.2v125.6c0,12.8,11.2,23.2,24,23.2s24-10.4,24-23.2V184.8
		C336,172,324.8,161.6,312,161.6z"/>
	<path style="fill:#ffffff;" d="M464,174.4L464,174.4c12.8,0,24,10.4,24,24v100c0,12.8-11.2,24-24,24l0,0"/>
</g>
<path style="fill:#ffffff;" d="M80,334.4c-12.8,0-24-10.4-24-23.2V184.8c0-12.8,11.2-23.2,24-23.2s24,10.4,24,23.2v125.6
	C104,324,92.8,334.4,80,334.4z"/>
<path style="fill:#ffffff;" d="M56,184.8c0-12.8,11.2-23.2,24-23.2s24,10.4,24,23.2V312"/>
<path style="fill:#ffffff;" d="M160,334.4c-12.8,0-24-10.4-24-23.2V184.8c0-12.8,11.2-23.2,24-23.2s24,10.4,24,23.2v125.6
	C184,324,172.8,334.4,160,334.4z"/>
<path style="fill:#ffffff;" d="M136,184.8c0-12.8,11.2-23.2,24-23.2s24,10.4,24,23.2V312"/>
<path style="fill:#ffffff;" d="M232,334.4c-12.8,0-24-10.4-24-23.2V184.8c0-12.8,11.2-23.2,24-23.2s24,10.4,24,23.2v125.6
	C256,324,244.8,334.4,232,334.4z"/>
<path style="fill:#ffffff;" d="M208,184.8c0-12.8,11.2-23.2,24-23.2s24,10.4,24,23.2V312"/>
<path style="fill:#ffffff;" d="M304,334.4c-12.8,0-24-10.4-24-23.2V184.8c0-12.8,11.2-23.2,24-23.2s24,10.4,24,23.2v125.6
	C328,324,316.8,334.4,304,334.4z"/>
<path style="fill:#ffffff;" d="M280,184.8c0-12.8,11.2-23.2,24-23.2s24,10.4,24,23.2V312"/>
<path style="fill:#ffffff;" d="M464.8,168H464v-16c0-19.2-14.4-32-32.8-32H32.8C15.2,120,0,133.6,0,152v192c0,19.2,15.2,32,32.8,32
	h398.4c17.6,0,32.8-13.6,32.8-32v-16h0.8c17.6,0,31.2-12.8,31.2-29.6V197.6C496,180.8,482.4,168,464.8,168z M448,344
	c0,10.4-7.2,16-16.8,16H32.8C24,360,16,353.6,16,344V152c0-10.4,8-16,16.8-16h398.4c9.6,0,16.8,6.4,16.8,16L448,344L448,344z
	 M480,298.4c0,8.8-6.4,13.6-15.2,13.6H464V184h0.8c8.8,0,15.2,4.8,15.2,13.6V298.4z"/>
<path style="fill:#ffffff;" d="M263.2,360H32.8C24,360,16,353.6,16,344V152c0-6.4,3.2-10.4,8-14.4L11.2,128C4,133.6,0,141.6,0,152
	v192c0,19.2,15.2,32,32.8,32H280L263.2,360z"/>
<g>
</g>
<g>
</g>
<g>
</g>
<g>
</g>
<g>
</g>
<g>
</g>
<g>
</g>
<g>
</g>
<g>
</g>
<g>
</g>
<g>
</g>
<g>
</g>
<g>
</g>
<g>
</g>
<g>
</g>
</svg>
