<?xml version="1.0" encoding="UTF-8" standalone="no"?>
<svg
   viewBox="0 0 576 512"
   version="1.1"
   id="svg119"
   sodipodi:docname="bat-75.svg"
   inkscape:version="1.2.1 (9c6d41e410, 2022-07-14, custom)"
   xml:space="preserve"
   xmlns:inkscape="http://www.inkscape.org/namespaces/inkscape"
   xmlns:sodipodi="http://sodipodi.sourceforge.net/DTD/sodipodi-0.dtd"
   xmlns="http://www.w3.org/2000/svg"
   xmlns:svg="http://www.w3.org/2000/svg"><defs
     id="defs123" /><sodipodi:namedview
     id="namedview121"
     pagecolor="#ffffff"
     bordercolor="#ffffff"
     borderopacity="1"
     inkscape:showpageshadow="0"
     inkscape:pageopacity="0"
     inkscape:pagecheckerboard="0"
     inkscape:deskcolor="#ffffff"
     showgrid="false"
     showguides="false"
     inkscape:zoom="1.116421"
     inkscape:cx="341.71698"
     inkscape:cy="160.33379"
     inkscape:window-width="2468"
     inkscape:window-height="1264"
     inkscape:window-x="52"
     inkscape:window-y="44"
     inkscape:window-maximized="0"
     inkscape:current-layer="svg119" /><!--! Font Awesome Pro 6.1.1 by @fontawesome - https://fontawesome.com License - https://fontawesome.com/license (Commercial License) Copyright 2022 Fonticons, Inc. --><path
     id="path1524"
     style="fill:#ffffff;stroke:none;stroke-width:77.0119;stroke-linecap:round;stroke-linejoin:round;stroke-dasharray:none;paint-order:markers stroke fill"
     d="m -610.65597,137.40641 a 60.63158,60.63158 0 0 0 -60.63086,60.63085 v 60.63086 60.63282 60.63086 a 60.63158,60.63158 0 0 0 60.63086,60.63085 h 60.63281 60.63086 60.63086 60.63281 60.63086 60.63282 60.63085 a 60.63158,60.63158 0 0 0 60.63086,-60.63085 v -30.31641 c 16.79493,0 30.316414,-13.51952 30.316414,-30.31445 v -60.63282 c 0,-16.79493 -13.521484,-30.31445 -30.316414,-30.31445 v -30.31641 a 60.63158,60.63158 0 0 0 -60.63086,-60.63085 h -60.63085 -60.63282 -60.63086 -60.63281 -60.63086 -60.63086 z m 0,60.63085 h 60.63281 60.63086 60.63086 60.63281 60.63086 60.63282 60.63085 v 60.63086 60.63282 60.63086 h -60.63085 -60.63282 -60.63086 -60.63281 -60.63086 -60.63086 -60.63281 v -60.63086 -60.63282 z" /><rect
     style="fill:#ffffff;stroke:none;stroke-width:137.215;stroke-linecap:round;stroke-linejoin:round;stroke-dasharray:none;paint-order:markers stroke fill"
     id="rect1582"
     width="375.89569"
     height="161.82863"
     x="652.35126"
     y="175.08566"
     rx="0"
     ry="0" /><path
     style="fill:none;stroke:#ffffff;stroke-width:1px;stroke-linecap:butt;stroke-linejoin:miter;stroke-opacity:1"
     d="M -129.31691,134.7373 V 74.106455"
     id="path2382" /><path
     id="path2384"
     style="fill:#ffffff;stroke:none;stroke-width:32.2708;stroke-linecap:round;stroke-linejoin:round;stroke-dasharray:none;paint-order:markers stroke fill"
     d="M 54.857422 91.427734 A 54.857143 54.857143 0 0 0 0 146.28516 L 0 201.14258 L 0 256 L 0 310.85742 L 0 365.71484 A 54.857143 54.857143 0 0 0 54.857422 420.57227 L 109.71484 420.57227 L 164.57227 420.57227 L 219.42773 420.57227 L 274.28516 420.57227 L 329.14258 420.57227 L 384 420.57227 L 438.85742 420.57227 L 493.71484 420.57227 A 54.857143 54.857143 0 0 0 548.57227 365.71484 L 548.57227 310.85742 C 563.76768 310.85742 576 298.62315 576 283.42773 L 576 228.57227 C 576 213.37685 563.76768 201.14258 548.57227 201.14258 L 548.57227 146.28516 A 54.857143 54.857143 0 0 0 493.71484 91.427734 L 438.85742 91.427734 L 384 91.427734 L 329.14258 91.427734 L 274.28516 91.427734 L 219.42773 91.427734 L 164.57227 91.427734 L 109.71484 91.427734 L 54.857422 91.427734 z M 54.857422 146.28516 L 109.71484 146.28516 L 164.57227 146.28516 L 219.42773 146.28516 L 274.28516 146.28516 L 329.14258 146.28516 L 384 146.28516 L 438.85742 146.28516 L 493.71484 146.28516 L 493.71484 201.14258 L 493.71484 256 L 493.71484 310.85742 L 493.71484 365.71484 L 438.85742 365.71484 L 384 365.71484 L 329.14258 365.71484 L 274.28516 365.71484 L 219.42773 365.71484 L 164.57227 365.71484 L 109.71484 365.71484 L 54.857422 365.71484 L 54.857422 310.85742 L 54.857422 256 L 54.857422 201.14258 L 54.857422 146.28516 z " /><path
     id="path1524-5"
     style="fill:#ffffff;fill-opacity:0.447406;stroke:none;stroke-width:77.0119;stroke-linecap:round;stroke-linejoin:round;stroke-dasharray:none;paint-order:markers stroke fill"
     d="m -618.56714,-208.4164 a 60.63158,60.63158 0 0 0 -60.63086,60.63085 v 60.630865 60.63282 60.63086 a 60.63158,60.63158 0 0 0 60.63086,60.63085 h 60.63282 60.63086 60.63086 60.63281 60.63086 60.63282 60.63085 a 60.63158,60.63158 0 0 0 60.63086,-60.63085 V 3.7925848 c 16.79493,0 30.31641,-13.51952 30.31641,-30.3144498 v -60.63282 c 0,-16.794935 -13.52148,-30.314455 -30.31641,-30.314455 v -30.31641 a 60.63158,60.63158 0 0 0 -60.63086,-60.63085 h -60.63085 -60.63282 -60.63086 -60.63281 -60.63086 -60.63086 z m 0,60.63085 h 60.63282 60.63086 60.63086 60.63281 60.63086 60.63282 60.63085 v 60.630865 60.63282 60.63086 h -60.63085 -60.63282 -60.63086 -60.63281 -60.63086 -60.63086 -60.63282 v -60.63086 -60.63282 z" /></svg>
