<?xml version="1.0" encoding="UTF-8" standalone="no"?>
<svg
   version="1.0"
   width="512.000000pt"
   height="512.000000pt"
   viewBox="0 0 512.000000 512.000000"
   preserveAspectRatio="xMidYMid meet"
   id="svg783"
   sodipodi:docname="gundam.svg"
   inkscape:version="1.2.1 (9c6d41e410, 2022-07-14)"
   xmlns:inkscape="http://www.inkscape.org/namespaces/inkscape"
   xmlns:sodipodi="http://sodipodi.sourceforge.net/DTD/sodipodi-0.dtd"
   xmlns="http://www.w3.org/2000/svg"
   xmlns:svg="http://www.w3.org/2000/svg">
  <defs
     id="defs787" />
  <sodipodi:namedview
     id="namedview785"
     pagecolor="#ffffff"
     bordercolor="#ffffff"
     borderopacity="1"
     inkscape:showpageshadow="0"
     inkscape:pageopacity="0"
     inkscape:pagecheckerboard="0"
     inkscape:deskcolor="#ffffff"
     inkscape:document-units="pt"
     showgrid="false"
     inkscape:zoom="1.640625"
     inkscape:cx="341.02857"
     inkscape:cy="301.71429"
     inkscape:window-width="2556"
     inkscape:window-height="1392"
     inkscape:window-x="0"
     inkscape:window-y="44"
     inkscape:window-maximized="1"
     inkscape:current-layer="svg783" />
  <g
     transform="matrix(0.12608813,0,0,-0.12608813,-66.785599,578.78339)"
     fill="#ffffff"
     stroke="none"
     id="g781">
    <path
       d="m 1794,4246 c -3,-9 16,-212 43,-451 46,-411 48,-435 30,-429 -13,4 -40,-11 -90,-49 -66,-51 -218,-197 -250,-240 -12,-17 -43,-1 -442,229 -236,136 -436,249 -445,251 -22,6 -35,-26 -18,-43 7,-7 195,-168 418,-359 344,-294 405,-351 408,-376 2,-16 1,-29 -2,-29 -3,0 -64,32 -137,70 -73,39 -139,70 -146,70 -25,0 -24,-27 2,-146 58,-262 154,-569 255,-818 45,-111 50,-130 50,-202 0,-76 2,-82 53,-176 l 53,-98 92,-54 c 51,-30 167,-112 259,-182 92,-70 177,-128 188,-128 19,-1 20,4 17,119 l -3,120 133,-130 c 73,-72 136,-134 139,-140 4,-5 10,-34 14,-64 6,-41 15,-62 42,-92 34,-38 37,-39 103,-39 66,0 68,1 104,40 20,22 36,50 37,63 2,70 23,101 157,232 l 133,130 -3,-120 c -3,-103 -1,-120 13,-123 9,-1 94,57 189,129 96,73 214,156 263,185 l 90,52 53,99 c 52,95 54,101 54,177 0,72 5,91 50,202 63,155 150,411 195,573 34,125 85,348 85,375 0,31 -32,21 -164,-50 -76,-41 -140,-74 -142,-74 -3,0 -4,13 -2,29 2,24 69,85 408,376 223,191 411,353 418,359 17,17 4,49 -18,43 -9,-2 -208,-115 -442,-250 l -426,-246 -119,118 c -127,127 -219,196 -246,185 -14,-5 -16,-1 -12,22 15,86 95,848 91,860 -6,15 -32,19 -40,6 -3,-5 -48,-201 -101,-437 -53,-236 -97,-431 -99,-432 -1,-2 -10,3 -19,10 -12,8 -19,34 -23,85 l -7,73 -80,75 c -171,161 -344,249 -439,223 -106,-28 -279,-141 -384,-251 -50,-51 -52,-55 -58,-123 -4,-50 -11,-74 -23,-83 -14,-10 -19,-10 -22,-1 -2,7 -47,204 -100,438 -79,351 -99,426 -114,429 -9,2 -20,-4 -23,-12 z m 892,-486 c 78,-38 208,-136 271,-202 32,-33 33,-35 42,-168 l 9,-135 -26,-22 c -22,-18 -24,-24 -13,-37 8,-10 22,-14 36,-10 14,3 24,0 28,-9 8,-21 -126,-262 -146,-262 -9,0 -79,75 -156,167 l -141,167 v 109 c 0,85 -3,112 -15,122 -12,10 -18,10 -30,0 -12,-10 -15,-37 -15,-122 v -109 l -142,-170 c -83,-100 -148,-169 -157,-167 -19,4 -151,247 -144,265 4,9 14,12 28,9 14,-4 28,0 36,10 11,13 9,19 -13,37 l -26,22 10,135 c 11,155 6,146 138,252 93,75 140,106 210,135 81,33 124,30 216,-17 z m -717,-332 62,-278 73,-137 74,-138 4,-103 5,-102 -46,27 c -25,15 -66,38 -91,53 l -45,26 -12,95 c -6,52 -21,180 -32,284 -12,105 -30,267 -41,360 -21,177 -23,201 -16,194 2,-2 31,-129 65,-281 z m 1231,96 c -12,-98 -27,-235 -35,-304 -7,-69 -21,-196 -31,-284 l -18,-158 -35,-22 c -20,-12 -61,-37 -92,-54 l -56,-32 5,103 4,102 73,136 72,135 63,282 c 35,155 65,280 67,278 2,-1 -6,-84 -17,-182 z M 1850,2806 c 283,-164 519,-302 524,-307 6,-5 18,-48 28,-96 9,-49 24,-107 33,-130 20,-52 67,-117 100,-139 23,-15 27,-15 50,0 62,41 124,175 140,306 l 7,55 541,312 c 298,172 635,366 750,432 114,66 207,118 207,116 0,-2 -376,-326 -835,-719 l -835,-717 -807,692 c -445,380 -821,705 -838,721 -18,18 57,-21 195,-100 124,-71 457,-263 740,-426 z m 220,517 c 0,-10 -4,-24 -9,-31 -6,-10 -10,-7 -13,12 -3,14 -3,28 0,31 11,11 22,4 22,-12 z m 1000,-15 c 0,-25 -3,-29 -10,-18 -13,20 -13,50 0,50 6,0 10,-15 10,-32 z m -1175,-63 c 3,-11 12,-71 19,-134 l 13,-114 -32,-61 c -18,-33 -37,-62 -42,-63 -6,-2 -74,33 -151,78 l -142,81 19,26 c 28,39 157,162 220,211 l 55,43 18,-24 c 10,-13 20,-32 23,-43 z m 1432,19 c 69,-56 187,-169 214,-205 l 19,-27 -140,-81 c -77,-45 -144,-81 -149,-81 -5,0 -25,28 -44,63 l -35,62 15,129 c 11,100 19,135 36,157 11,16 22,29 23,29 2,0 29,-21 61,-46 z m -642,-207 c 64,-76 115,-141 112,-143 -2,-2 -111,-3 -242,-2 l -238,3 119,142 c 66,78 122,141 125,140 4,-1 59,-64 124,-140 z m -741,-205 c 6,-42 6,-43 -16,-31 -13,6 -25,13 -26,15 -2,1 4,16 14,33 10,17 19,29 20,28 0,-1 4,-21 8,-45 z m 1276,-13 c 0,-3 -12,-11 -26,-18 -25,-11 -26,-10 -20,11 3,13 6,34 6,48 v 25 l 20,-30 c 11,-16 20,-33 20,-36 z m -795,-29 c 0,-42 -3,-50 -20,-52 -18,-3 -20,-12 -25,-100 l -5,-96 -66,38 -66,39 -6,77 c -4,42 -7,92 -7,111 v 33 h 98 97 z m 215,31 c 5,-11 7,-33 4,-50 l -6,-31 h -78 -78 l -7,29 c -3,17 -1,39 5,50 9,18 20,21 80,21 58,0 71,-3 80,-19 z m 246,-88 c -8,-120 -5,-115 -96,-166 l -50,-28 v 85 c 0,95 -5,116 -29,116 -13,0 -16,10 -16,50 v 50 h 99 99 z m 1005,-64 c -46,-199 -174,-609 -216,-688 -11,-22 -12,-19 -7,27 4,41 1,56 -17,78 -19,25 -21,39 -21,182 0,89 6,193 15,246 8,50 16,105 17,121 3,27 14,36 128,97 68,37 126,66 127,64 1,-1 -11,-58 -26,-127 z m -2551,58 c 111,-60 115,-63 118,-97 1,-19 9,-71 17,-116 9,-49 15,-143 15,-241 0,-148 -2,-162 -21,-187 -18,-23 -21,-36 -16,-79 l 5,-52 -20,45 c -57,129 -182,542 -232,773 -6,26 9,21 134,-46 z m 274,-84 c 55,-48 102,-88 104,-89 2,-1 12,-69 22,-150 21,-163 36,-352 27,-344 -2,3 -21,44 -41,92 -25,62 -38,110 -42,160 -9,120 -25,206 -40,219 -44,36 -74,-54 -74,-227 0,-96 -3,-124 -15,-134 -13,-11 -15,4 -15,129 0,77 -6,180 -14,228 -19,118 -28,203 -20,203 4,0 52,-39 108,-87 z m 1999,30 c -2,-32 -11,-97 -19,-146 -8,-48 -14,-151 -14,-228 0,-125 -2,-140 -15,-129 -12,10 -15,38 -15,134 0,173 -30,263 -74,227 -15,-13 -31,-99 -40,-219 -4,-50 -17,-98 -42,-160 -20,-48 -39,-89 -41,-92 -9,-8 6,181 27,342 18,145 19,148 52,176 18,16 65,57 103,90 39,34 73,61 77,62 4,0 4,-26 1,-57 z m -926,-105 c -10,-187 -45,-315 -105,-388 -19,-24 -21,-24 -39,-7 -58,52 -101,208 -110,395 l -6,122 h 133 133 z m -451,-465 c -1,-2 -76,31 -166,72 -90,42 -169,74 -177,71 -10,-4 -13,-34 -13,-120 v -114 l 91,-232 90,-232 14,-202 c 7,-110 12,-202 11,-203 -1,-1 -7,2 -14,6 -9,5 -18,70 -29,207 l -16,199 -102,215 -102,216 -6,144 c -4,80 -14,192 -22,250 -8,58 -15,108 -15,113 0,4 103,-81 230,-190 126,-108 228,-198 226,-200 z m 1089,276 c -9,-63 -19,-177 -22,-254 l -6,-140 -102,-216 -102,-216 -16,-198 c -11,-136 -20,-201 -29,-206 -7,-4 -13,-7 -14,-6 -1,1 4,93 12,204 l 13,201 90,232 91,232 v 114 c 0,85 -3,116 -13,120 -7,2 -92,-32 -188,-76 -95,-45 -168,-75 -161,-68 26,26 457,395 459,393 2,-1 -4,-53 -12,-116 z M 1629,2266 c -5,-6 -8,23 -8,70 l 2,79 7,-70 c 4,-39 4,-74 -1,-79 z m 1871,67 c 0,-43 -4,-73 -8,-67 -7,12 -4,144 4,144 2,0 4,-35 4,-77 z M 1694,2119 c 20,-51 34,-95 29,-99 -4,-5 -43,-22 -86,-40 l -79,-33 4,-178 c 2,-99 2,-179 1,-179 -1,0 -10,15 -20,33 -14,25 -20,77 -29,237 l -12,205 71,73 c 40,39 74,72 78,72 3,0 22,-41 43,-91 z m 1853,19 71,-73 -12,-205 c -9,-160 -15,-212 -29,-237 -10,-18 -19,-33 -20,-33 -1,0 -1,80 1,179 l 4,178 -79,33 c -43,18 -82,35 -86,40 -8,7 61,190 72,190 4,0 38,-33 78,-72 z M 2321,2024 c 98,-44 73,-63 -58,-43 -86,12 -89,13 -140,64 -31,30 -53,61 -53,73 0,20 6,19 96,-23 53,-25 123,-57 155,-71 z m 729,94 c 0,-12 -22,-42 -52,-73 -53,-52 -53,-52 -146,-65 -69,-10 -96,-10 -104,-2 -7,7 -10,14 -7,16 3,4 290,139 307,145 1,1 2,-9 2,-21 z M 2040,1996 c 35,-42 72,-76 82,-76 15,0 16,-3 6,-25 -6,-14 -14,-25 -18,-25 -4,0 -46,42 -93,94 -73,79 -87,100 -87,128 v 33 l 23,-27 c 12,-15 51,-61 87,-102 z m 1060,-40 c -73,-74 -92,-88 -100,-76 -14,21 -12,40 3,40 8,0 52,45 98,99 l 84,100 3,-36 c 3,-34 -3,-42 -88,-127 z m -1364,-12 c -3,-9 -6,-40 -6,-70 v -54 h -60 -60 v 48 47 l 53,22 c 65,26 81,28 73,7 z m 1716,-6 58,-23 v -47 -48 h -60 -60 v 54 c 0,30 -3,61 -6,70 -8,21 -1,20 68,-6 z M 1978,1542 c -2,-8 -47,41 -100,108 l -98,123 v 57 c 0,140 4,137 107,-77 51,-109 92,-204 91,-211 z m 1361,302 1,-71 -97,-122 c -54,-67 -99,-117 -101,-111 -7,20 182,408 190,390 4,-8 7,-47 7,-86 z m -1257,-28 c 6,-11 30,-90 53,-178 l 43,-158 75,-87 c 70,-84 75,-88 110,-85 l 37,4 -1,-54 c -3,-123 2,-124 -145,16 l -131,125 -6,93 c -5,83 -12,109 -67,248 -34,85 -64,162 -67,170 -7,19 85,-68 99,-94 z m 431,76 27,-28 -119,-29 c -114,-27 -123,-28 -190,-15 -39,7 -71,14 -71,15 0,1 5,16 11,34 12,35 21,37 98,16 50,-13 58,-12 125,10 91,30 88,30 119,-3 z m 209,4 c 73,-23 81,-23 130,-10 75,20 85,18 97,-16 12,-35 14,-33 -69,-48 -47,-9 -71,-7 -160,14 -144,34 -137,30 -110,59 13,14 26,25 29,25 3,0 41,-11 83,-24 z m 351,-148 c -58,-147 -65,-172 -70,-256 l -6,-93 -131,-126 -131,-125 -7,38 c -4,22 -7,58 -7,82 l -1,44 37,-4 c 35,-3 40,1 111,84 l 74,87 43,161 c 42,153 46,163 92,215 26,29 51,54 54,54 4,1 -22,-72 -58,-161 z m -377,42 c 123,-29 129,-30 200,-16 41,7 74,11 74,7 0,-3 -17,-67 -38,-142 -36,-129 -41,-139 -97,-207 -48,-58 -64,-72 -87,-72 -21,0 -31,6 -38,24 -10,28 -127,125 -150,125 -23,0 -140,-97 -150,-125 -7,-17 -17,-24 -37,-24 -22,0 -40,15 -88,72 -56,69 -61,78 -97,207 -21,74 -35,137 -33,140 3,2 38,-3 78,-12 l 72,-16 125,34 c 69,18 128,34 132,34 4,1 64,-13 134,-29 z m -848,-185 c 73,-91 129,-165 125,-164 -19,1 -358,267 -361,283 -7,35 6,46 56,46 h 48 z m 1657,130 c 0,-27 -17,-43 -175,-162 -96,-73 -178,-133 -183,-133 -4,0 52,74 125,165 l 133,166 50,-3 c 48,-3 50,-4 50,-33 z m -1820,-146 55,-41 v -64 c 0,-35 -3,-64 -6,-64 -3,0 -30,15 -60,32 l -54,33 v 72 c 0,40 2,73 5,73 3,0 30,-19 60,-41 z m 1815,-33 v -74 l -55,-31 c -30,-17 -57,-31 -60,-31 -3,0 -5,28 -5,63 v 63 l 57,42 c 32,23 59,42 60,42 2,0 3,-33 3,-74 z M 1994,1338 c 8,-33 7,-110 -2,-106 -4,2 -51,36 -105,77 l -97,73 v 65 64 l 99,-75 c 58,-44 101,-84 105,-98 z m 1336,103 v -58 l -99,-77 c -55,-42 -102,-76 -105,-76 -8,0 -6,91 3,113 7,18 178,156 194,157 4,0 7,-26 7,-59 z m -717,-27 c 29,-23 47,-45 47,-58 0,-11 5,-61 10,-111 5,-49 6,-112 1,-140 -8,-53 -10,-52 -38,40 l -18,60 h -55 -55 l -18,-60 c -28,-92 -30,-93 -38,-40 -5,28 -4,91 1,140 5,50 10,100 10,112 0,13 17,34 48,57 26,19 50,36 53,36 3,0 27,-16 52,-36 z m -8,-355 c 35,-128 29,-149 -43,-149 -41,0 -51,4 -61,23 -11,20 -9,39 15,125 37,138 52,138 89,1 z"
       id="path771" />
    <path
       d="m 2475,3715 c -74,-44 -239,-185 -243,-208 -8,-41 30,-25 120,50 51,43 121,96 156,117 66,41 69,45 50,64 -16,16 -16,17 -83,-23 z"
       id="path773" />
    <path
       d="m 1767,3179 c -57,-37 -127,-115 -127,-140 0,-38 23,-29 78,28 32,33 72,68 90,77 24,13 32,23 30,38 -5,32 -19,31 -71,-3 z"
       id="path775" />
    <path
       d="m 2442,1704 c -43,-30 -21,-37 118,-37 139,0 161,7 118,37 -17,12 -47,16 -118,16 -71,0 -101,-4 -118,-16 z"
       id="path777" />
    <path
       d="m 2450,1607 c -14,-7 -26,-20 -28,-28 -4,-21 24,-32 48,-19 10,6 51,10 90,10 39,0 80,-4 90,-10 24,-13 52,-2 48,19 -5,27 -50,41 -138,41 -49,0 -96,-6 -110,-13 z"
       id="path779" />
  </g>
</svg>
