<?xml version="1.0" encoding="UTF-8" standalone="no"?>
<!-- Created with Inkscape (http://www.inkscape.org/) -->

<svg
   width="400"
   height="400"
   viewBox="0 0 105.83333 105.83333"
   version="1.1"
   id="svg236"
   inkscape:version="1.2.1 (9c6d41e410, 2022-07-14, custom)"
   sodipodi:docname="vol.svg"
   xmlns:inkscape="http://www.inkscape.org/namespaces/inkscape"
   xmlns:sodipodi="http://sodipodi.sourceforge.net/DTD/sodipodi-0.dtd"
   xmlns="http://www.w3.org/2000/svg"
   xmlns:svg="http://www.w3.org/2000/svg">
  <sodipodi:namedview
     id="namedview238"
     pagecolor="#ffffff"
     bordercolor="#ffffff"
     borderopacity="1"
     inkscape:showpageshadow="0"
     inkscape:pageopacity="0"
     inkscape:pagecheckerboard="0"
     inkscape:deskcolor="#ffffff"
     inkscape:document-units="mm"
     showgrid="false"
     inkscape:zoom="1.2034605"
     inkscape:cx="218.53646"
     inkscape:cy="24.097176"
     inkscape:window-width="1201"
     inkscape:window-height="1264"
     inkscape:window-x="26"
     inkscape:window-y="70"
     inkscape:window-maximized="0"
     inkscape:current-layer="layer1"
     showguides="false" />
  <defs
     id="defs233" />
  <g
     inkscape:label="Layer 1"
     inkscape:groupmode="layer"
     id="layer1">
    <path
       id="path1441"
       style="color:#ffffff;fill:#ffffff;stroke-width:7.47238;stroke-linecap:round;stroke-linejoin:round;fill-opacity:1"
       d="M 33.234147 14.722616 A 3.7365637 3.7365637 0 0 0 30.388843 16.038814 L 16.782955 32.033187 L 3.7362061 32.033187 A 3.7365637 3.7365637 0 0 0 0 35.769393 L 0 70.042753 A 3.7365637 3.7365637 0 0 0 3.7362061 73.779476 L 16.782955 73.779476 L 30.388843 89.773332 A 3.7365637 3.7365637 0 0 0 33.234147 91.08798 L 36.751762 91.08798 A 3.7365637 3.7365637 0 0 0 40.488485 87.353324 L 40.488485 18.458822 A 3.7365637 3.7365637 0 0 0 36.751762 14.722616 L 33.234147 14.722616 z " />
    <path
       id="path1779"
       style="fill:#ffffff;fill-opacity:1;stroke:none;stroke-width:41.7034;stroke-linecap:round;stroke-linejoin:round;stroke-dasharray:none"
       d="M -47.480632,94.634254 A 59.018491,59.018491 0 0 0 -30.191003,52.90521 59.018491,59.018491 0 0 0 -47.272571,11.447959 5.4288948,5.4288948 0 0 0 -47.5035,11.199035 a 5.4288948,5.4288948 0 0 0 -7.677615,0 5.4288948,5.4288948 0 0 0 0,7.677615 5.4288948,5.4288948 0 0 0 0.06484,0.06338 48.160698,48.160698 0 0 1 14.067508,33.965584 48.160698,48.160698 0 0 1 -14.109492,34.051054 5.4288948,5.4288948 0 0 0 -8e-6,7.677617 5.4288948,5.4288948 0 0 0 7.677625,0 z" />
    <path
       id="path1781"
       style="fill:#ffffff;fill-opacity:1;stroke:none;stroke-width:30.195;stroke-linecap:round;stroke-linejoin:round;stroke-dasharray:none"
       d="m -62.712626,83.118955 a 5.4288948,5.4288948 0 0 0 0.03452,-0.03669 42.731802,42.731802 0 0 0 12.483626,-30.176639 42.731802,42.731802 0 0 0 -12.238075,-29.880843 5.4288948,5.4288948 0 0 0 -0.293914,-0.319404 5.4288948,5.4288948 0 0 0 -7.677614,0 5.4288948,5.4288948 0 0 0 0,7.677615 31.874011,31.874011 0 0 1 9.351845,22.522259 31.874011,31.874011 0 0 1 -9.331973,22.530883 5.4288948,5.4288948 0 0 0 -0.0054,0.0054 5.4288948,5.4288948 0 0 0 0,7.677617 5.4288948,5.4288948 0 0 0 7.677616,0 z" />
    <path
       id="path1783"
       style="fill:#ffffff;fill-opacity:1;stroke:none;stroke-width:18.6581;stroke-linecap:round;stroke-linejoin:round;stroke-dasharray:none"
       d="m -77.336881,71.594659 a 26.404768,26.404768 0 0 0 7.755591,-18.689449 26.404768,26.404768 0 0 0 -7.426069,-18.320182 5.4288948,5.4288948 0 0 0 -0.331399,-0.367389 5.4288948,5.4288948 0 0 0 -7.677616,0 5.4288948,5.4288948 0 0 0 0,7.677616 l -0.0037,0.0037 a 15.546978,15.546978 0 0 1 4.581078,11.006585 15.546978,15.546978 0 0 1 -4.564211,11.000958 5.4288948,5.4288948 0 0 0 -0.01121,0.01053 5.4288948,5.4288948 0 0 0 0,7.677616 5.4288948,5.4288948 0 0 0 7.677625,0 z" />
    <path
       id="rect1775"
       style="fill:#ffffff;fill-opacity:1;stroke:#ffffff;stroke-width:10.5833;stroke-linecap:round;stroke-dasharray:none;stroke-opacity:1;paint-order:markers stroke fill"
       d="m 60.146726,32.124909 c -0.303543,-1e-6 -0.607152,0.116224 -0.839743,0.348815 -0.465181,0.465182 -0.465181,1.214303 0,1.679485 L 78.092401,52.938108 59.306984,71.723525 c -0.465181,0.465182 -0.465182,1.214302 0,1.679484 0.465181,0.465181 1.214303,0.465182 1.679484,0 L 79.771885,54.617592 98.556781,73.403006 c 0.465184,0.465185 1.214305,0.465185 1.679489,4e-6 0.46518,-0.465182 0.46518,-1.214304 0,-1.679488 L 81.451369,52.938108 100.23627,34.153209 c 0.46518,-0.465182 0.46518,-1.214303 0,-1.679485 -0.465184,-0.465181 -1.214304,-0.465181 -1.679485,1e-6 l -18.7849,18.784899 -18.785417,-18.7849 c -0.232591,-0.232591 -0.536199,-0.348816 -0.839742,-0.348815 z" />
    <path
       id="path1785"
       style="color:#ffffff;fill:#ffffff;fill-opacity:1;stroke-width:7.47238;stroke-linecap:round;stroke-linejoin:round"
       d="m -102.79019,14.722616 a 3.7365637,3.7365637 0 0 0 -2.8453,1.316198 l -13.60589,15.994373 h -13.04675 a 3.7365637,3.7365637 0 0 0 -3.7362,3.736206 v 34.27336 a 3.7365637,3.7365637 0 0 0 3.7362,3.736723 h 13.04675 l 13.60589,15.993856 a 3.7365637,3.7365637 0 0 0 2.8453,1.314648 h 3.517619 a 3.7365637,3.7365637 0 0 0 3.736723,-3.734656 V 18.458822 a 3.7365637,3.7365637 0 0 0 -3.736723,-3.736206 z" />
  </g>
</svg>
