<?xml version="1.0" encoding="UTF-8" standalone="no"?>
<!-- Created with Inkscape (http://www.inkscape.org/) -->

<svg
   width="400"
   height="400"
   viewBox="0 0 105.83333 105.83333"
   version="1.1"
   id="svg236"
   inkscape:version="1.2.1 (9c6d41e410, 2022-07-14, custom)"
   sodipodi:docname="vol.svg"
   xmlns:inkscape="http://www.inkscape.org/namespaces/inkscape"
   xmlns:sodipodi="http://sodipodi.sourceforge.net/DTD/sodipodi-0.dtd"
   xmlns="http://www.w3.org/2000/svg"
   xmlns:svg="http://www.w3.org/2000/svg">
  <sodipodi:namedview
     id="namedview238"
     pagecolor="#ffffff"
     bordercolor="#ffffff"
     borderopacity="1"
     inkscape:showpageshadow="0"
     inkscape:pageopacity="0"
     inkscape:pagecheckerboard="0"
     inkscape:deskcolor="#ffffff"
     inkscape:document-units="mm"
     showgrid="false"
     inkscape:zoom="1.3114235"
     inkscape:cx="179.57586"
     inkscape:cy="239.43448"
     inkscape:window-width="1201"
     inkscape:window-height="1264"
     inkscape:window-x="26"
     inkscape:window-y="70"
     inkscape:window-maximized="0"
     inkscape:current-layer="layer1" />
  <defs
     id="defs233" />
  <g
     inkscape:label="Layer 1"
     inkscape:groupmode="layer"
     id="layer1">
    <path
       id="path3166"
       style="fill:#ffffff;fill-opacity:1;stroke:none;stroke-width:41.7034;stroke-linecap:round;stroke-linejoin:round;stroke-dasharray:none"
       d="M 88.543701,94.634254 A 59.018491,59.018491 0 0 0 105.83333,52.90521 59.018491,59.018491 0 0 0 88.751762,11.447959 a 5.4288948,5.4288948 0 0 0 -0.230929,-0.248924 5.4288948,5.4288948 0 0 0 -7.677615,0 5.4288948,5.4288948 0 0 0 0,7.677615 5.4288948,5.4288948 0 0 0 0.06484,0.06338 48.160698,48.160698 0 0 1 14.067508,33.965584 48.160698,48.160698 0 0 1 -14.109492,34.051054 5.4288948,5.4288948 0 0 0 -8e-6,7.677617 5.4288948,5.4288948 0 0 0 7.677625,0 z" />
    <path
       id="path3168"
       style="fill:#ffffff;fill-opacity:1;stroke:none;stroke-width:30.195;stroke-linecap:round;stroke-linejoin:round;stroke-dasharray:none"
       d="m 73.311707,83.118955 a 5.4288948,5.4288948 0 0 0 0.03452,-0.03669 42.731802,42.731802 0 0 0 12.483626,-30.176639 42.731802,42.731802 0 0 0 -12.238075,-29.880843 5.4288948,5.4288948 0 0 0 -0.293914,-0.319404 5.4288948,5.4288948 0 0 0 -7.677614,0 5.4288948,5.4288948 0 0 0 0,7.677615 31.874011,31.874011 0 0 1 9.351845,22.522259 31.874011,31.874011 0 0 1 -9.331973,22.530883 5.4288948,5.4288948 0 0 0 -0.0054,0.0054 5.4288948,5.4288948 0 0 0 0,7.677617 5.4288948,5.4288948 0 0 0 7.677616,0 z" />
    <path
       id="path3170"
       style="fill:#ffffff;fill-opacity:1;stroke:none;stroke-width:18.6581;stroke-linecap:round;stroke-linejoin:round;stroke-dasharray:none"
       d="m 58.687452,71.594659 a 26.404768,26.404768 0 0 0 7.755591,-18.689449 26.404768,26.404768 0 0 0 -7.426069,-18.320182 5.4288948,5.4288948 0 0 0 -0.331399,-0.367389 5.4288948,5.4288948 0 0 0 -7.677616,0 5.4288948,5.4288948 0 0 0 0,7.677616 l -0.0037,0.0037 a 15.546978,15.546978 0 0 1 4.581078,11.006585 15.546978,15.546978 0 0 1 -4.564211,11.000958 5.4288948,5.4288948 0 0 0 -0.01121,0.01053 5.4288948,5.4288948 0 0 0 0,7.677616 5.4288948,5.4288948 0 0 0 7.677625,0 z" />
    <path
       id="path1441"
       style="color:#ffffff;fill:#ffffff;stroke-width:7.47238;stroke-linecap:round;stroke-linejoin:round;fill-opacity:1"
       d="M 33.234147 14.722616 A 3.7365637 3.7365637 0 0 0 30.388843 16.038814 L 16.782955 32.033187 L 3.7362061 32.033187 A 3.7365637 3.7365637 0 0 0 0 35.769393 L 0 70.042753 A 3.7365637 3.7365637 0 0 0 3.7362061 73.779476 L 16.782955 73.779476 L 30.388843 89.773332 A 3.7365637 3.7365637 0 0 0 33.234147 91.08798 L 36.751762 91.08798 A 3.7365637 3.7365637 0 0 0 40.488485 87.353324 L 40.488485 18.458822 A 3.7365637 3.7365637 0 0 0 36.751762 14.722616 L 33.234147 14.722616 z " />
    <path
       id="path291"
       style="fill:#ffffff;fill-opacity:1;stroke:none;stroke-width:39.8529;stroke-linecap:round;stroke-linejoin:round;stroke-dasharray:none"
       d="m -33.03621,92.794694 a 56.399604,56.399604 0 0 0 16.522418,-39.877359 56.399604,56.399604 0 0 0 -16.32359,-39.617627 5.1879929,5.1879929 0 0 0 -0.220681,-0.237878 5.1879929,5.1879929 0 0 0 -7.336929,0 5.1879929,5.1879929 0 0 0 0,7.336929 5.1879929,5.1879929 0 0 0 0.06196,0.06057 46.023614,46.023614 0 0 1 13.443276,32.458395 46.023614,46.023614 0 0 1 -13.483397,32.540072 5.1879929,5.1879929 0 0 0 -8e-6,7.33693 5.1879929,5.1879929 0 0 0 7.336938,0 z" />
    <path
       id="path293"
       style="fill:#ffffff;fill-opacity:1;stroke:none;stroke-width:28.8551;stroke-linecap:round;stroke-linejoin:round;stroke-dasharray:none"
       d="m -47.592299,81.790375 a 5.1879929,5.1879929 0 0 0 0.03299,-0.03506 40.83562,40.83562 0 0 0 11.929677,-28.837581 40.83562,40.83562 0 0 0 -11.695022,-28.55491 5.1879929,5.1879929 0 0 0 -0.280872,-0.305231 5.1879929,5.1879929 0 0 0 -7.336928,0 5.1879929,5.1879929 0 0 0 0,7.336929 30.459633,30.459633 0 0 1 8.936866,21.522856 30.459633,30.459633 0 0 1 -8.917876,21.531097 5.1879929,5.1879929 0 0 0 -0.0052,0.0052 5.1879929,5.1879929 0 0 0 0,7.33693 5.1879929,5.1879929 0 0 0 7.336929,0 z" />
    <path
       id="path295"
       style="fill:#ffffff;fill-opacity:1;stroke:none;stroke-width:17.8302;stroke-linecap:round;stroke-linejoin:round;stroke-dasharray:none"
       d="m -61.567618,70.777458 a 25.233082,25.233082 0 0 0 7.411445,-17.860123 25.233082,25.233082 0 0 0 -7.096545,-17.507242 5.1879929,5.1879929 0 0 0 -0.316693,-0.351087 5.1879929,5.1879929 0 0 0 -7.33693,0 5.1879929,5.1879929 0 0 0 0,7.33693 l -0.0035,0.0035 a 14.857096,14.857096 0 0 1 4.377797,10.518179 14.857096,14.857096 0 0 1 -4.361679,10.512801 5.1879929,5.1879929 0 0 0 -0.01071,0.01006 5.1879929,5.1879929 0 0 0 0,7.336929 5.1879929,5.1879929 0 0 0 7.336938,0 z" />
    <path
       id="path297"
       style="fill:#ffffff;fill-opacity:1;stroke:none;stroke-width:7.77976;stroke-linecap:round;stroke-linejoin:round;stroke-dasharray:none"
       d="M -81.513147,16.327207 -97.156012,34.714111 H -112.84837 V 71.12248 h 15.692358 l 15.642865,18.386402 h 3.734871 V 16.327207 Z" />
  </g>
</svg>
