<?xml version="1.0" encoding="UTF-8" standalone="no"?>
<svg
   viewBox="0 0 512 512"
   version="1.1"
   id="svg43"
   sodipodi:docname="brightness.svg"
   inkscape:version="1.2.2 (b0a8486541, 2022-12-01)"
   xmlns:inkscape="http://www.inkscape.org/namespaces/inkscape"
   xmlns:sodipodi="http://sodipodi.sourceforge.net/DTD/sodipodi-0.dtd"
   xmlns="http://www.w3.org/2000/svg"
   xmlns:svg="http://www.w3.org/2000/svg">
  <defs
     id="defs47" />
  <sodipodi:namedview
     id="namedview45"
     pagecolor="#505050"
     bordercolor="#eeeeee"
     borderopacity="1"
     inkscape:showpageshadow="0"
     inkscape:pageopacity="0"
     inkscape:pagecheckerboard="0"
     inkscape:deskcolor="#505050"
     showgrid="false"
     inkscape:zoom="0.52224835"
     inkscape:cx="-235.52013"
     inkscape:cy="92.867694"
     inkscape:window-width="1706"
     inkscape:window-height="960"
     inkscape:window-x="0"
     inkscape:window-y="0"
     inkscape:window-maximized="1"
     inkscape:current-layer="svg43" />
  <!--! Font Awesome Pro 6.1.1 by @fontawesome - https://fontawesome.com License - https://fontawesome.com/license (Commercial License) Copyright 2022 Fonticons, Inc. -->
  <path
     id="circle401"
     style="stroke-width:7.59742;stroke-linecap:round;stroke-linejoin:bevel"
     d="M 256 0 A 48.478992 48.478992 0 0 0 207.52148 48.478516 A 48.478992 48.478992 0 0 0 256 96.957031 A 48.478992 48.478992 0 0 0 304.47852 48.478516 A 48.478992 48.478992 0 0 0 256 0 z M 105.80273 60.904297 A 48.478992 48.478992 0 0 0 74.980469 74.980469 A 48.478992 48.478992 0 0 0 74.980469 143.54102 A 48.478992 48.478992 0 0 0 143.54102 143.54102 A 48.478992 48.478992 0 0 0 143.54102 74.980469 A 48.478992 48.478992 0 0 0 105.80273 60.904297 z M 399.28125 60.904297 A 48.478992 48.478992 0 0 0 368.45898 74.980469 A 48.478992 48.478992 0 0 0 368.45898 143.54102 A 48.478992 48.478992 0 0 0 437.01953 143.54102 A 48.478992 48.478992 0 0 0 437.01953 74.980469 A 48.478992 48.478992 0 0 0 399.28125 60.904297 z M 256 156.53711 A 99.461929 99.461929 0 0 0 156.53711 256 A 99.461929 99.461929 0 0 0 256 355.46289 A 99.461929 99.461929 0 0 0 355.46289 256 A 99.461929 99.461929 0 0 0 256 156.53711 z M 48.478516 207.52148 A 48.478992 48.478992 0 0 0 0 256 A 48.478992 48.478992 0 0 0 48.478516 304.47852 A 48.478992 48.478992 0 0 0 96.957031 256 A 48.478992 48.478992 0 0 0 48.478516 207.52148 z M 463.52148 207.52148 A 48.478992 48.478992 0 0 0 415.04297 256 A 48.478992 48.478992 0 0 0 463.52148 304.47852 A 48.478992 48.478992 0 0 0 512 256 A 48.478992 48.478992 0 0 0 463.52148 207.52148 z M 105.80273 354.38477 A 48.478992 48.478992 0 0 0 74.980469 368.45898 A 48.478992 48.478992 0 0 0 74.980469 437.01953 A 48.478992 48.478992 0 0 0 143.54102 437.01953 A 48.478992 48.478992 0 0 0 143.54102 368.45898 A 48.478992 48.478992 0 0 0 105.80273 354.38477 z M 399.28125 354.38477 A 48.478992 48.478992 0 0 0 368.45898 368.45898 A 48.478992 48.478992 0 0 0 368.45898 437.01953 A 48.478992 48.478992 0 0 0 437.01953 437.01953 A 48.478992 48.478992 0 0 0 437.01953 368.45898 A 48.478992 48.478992 0 0 0 399.28125 354.38477 z M 256 415.04297 A 48.478992 48.478992 0 0 0 207.52148 463.52148 A 48.478992 48.478992 0 0 0 256 512 A 48.478992 48.478992 0 0 0 304.47852 463.52148 A 48.478992 48.478992 0 0 0 256 415.04297 z " />
</svg>
