<?xml version="1.0" encoding="UTF-8" standalone="no"?>
<!-- Created with Inkscape (http://www.inkscape.org/) -->

<svg
   width="400"
   height="400"
   viewBox="0 0 105.83333 105.83333"
   version="1.1"
   id="svg236"
   inkscape:version="1.2.2 (b0a8486541, 2022-12-01)"
   sodipodi:docname="control-Panel.svg"
   xml:space="preserve"
   xmlns:inkscape="http://www.inkscape.org/namespaces/inkscape"
   xmlns:sodipodi="http://sodipodi.sourceforge.net/DTD/sodipodi-0.dtd"
   xmlns="http://www.w3.org/2000/svg"
   xmlns:svg="http://www.w3.org/2000/svg"><sodipodi:namedview
     id="namedview238"
     pagecolor="#505050"
     bordercolor="#eeeeee"
     borderopacity="1"
     inkscape:showpageshadow="0"
     inkscape:pageopacity="0"
     inkscape:pagecheckerboard="0"
     inkscape:deskcolor="#505050"
     inkscape:document-units="mm"
     showgrid="false"
     inkscape:zoom="0.92731645"
     inkscape:cx="189.79497"
     inkscape:cy="206.50987"
     inkscape:window-width="1660"
     inkscape:window-height="873"
     inkscape:window-x="0"
     inkscape:window-y="0"
     inkscape:window-maximized="1"
     inkscape:current-layer="layer1" /><defs
     id="defs233" /><g
     inkscape:label="Layer 1"
     inkscape:groupmode="layer"
     id="layer1"><path
       id="rect1426"
       style="fill:#000000;fill-opacity:1;stroke-width:0.0231437;stroke-dasharray:none"
       d="M 9.525 4.6730998 C 4.2481555 4.6730998 0 8.9212553 0 14.1981 C 0 19.474944 4.2481555 23.7231 9.525 23.7231 L 96.308333 23.7231 C 101.58518 23.7231 105.83333 19.474944 105.83333 14.1981 C 105.83333 8.9212553 101.58518 4.6730998 96.308333 4.6730998 L 9.525 4.6730998 z M 10.583333 43.391667 C 4.7201727 43.391667 0 47.639822 0 52.916667 C 0 58.193511 4.7201727 62.441667 10.583333 62.441667 L 95.25 62.441667 C 101.11316 62.441667 105.83333 58.193511 105.83333 52.916667 C 105.83333 47.639822 101.11316 43.391667 95.25 43.391667 L 10.583333 43.391667 z M 10.583333 82.110234 C 4.7201727 82.110234 0 86.358389 0 91.635234 C 0 96.912078 4.7201727 101.16023 10.583333 101.16023 L 95.25 101.16023 C 101.11316 101.16023 105.83333 96.912078 105.83333 91.635234 C 105.83333 86.358389 101.11316 82.110234 95.25 82.110234 L 10.583333 82.110234 z " /></g></svg>
