<?xml version="1.0" encoding="UTF-8" standalone="no"?>
<!-- Created with Inkscape (http://www.inkscape.org/) -->

<svg
   width="400"
   height="400"
   viewBox="0 0 105.83333 105.83333"
   version="1.1"
   id="svg236"
   inkscape:version="1.2.2 (b0a8486541, 2022-12-01)"
   sodipodi:docname="display.svg"
   xmlns:inkscape="http://www.inkscape.org/namespaces/inkscape"
   xmlns:sodipodi="http://sodipodi.sourceforge.net/DTD/sodipodi-0.dtd"
   xmlns="http://www.w3.org/2000/svg"
   xmlns:svg="http://www.w3.org/2000/svg">
  <sodipodi:namedview
     id="namedview238"
     pagecolor="#505050"
     bordercolor="#eeeeee"
     borderopacity="1"
     inkscape:showpageshadow="0"
     inkscape:pageopacity="0"
     inkscape:pagecheckerboard="0"
     inkscape:deskcolor="#505050"
     inkscape:document-units="mm"
     showgrid="false"
     inkscape:zoom="0.75765315"
     inkscape:cx="176.202"
     inkscape:cy="275.19189"
     inkscape:window-width="1660"
     inkscape:window-height="873"
     inkscape:window-x="0"
     inkscape:window-y="0"
     inkscape:window-maximized="1"
     inkscape:current-layer="layer1" />
  <defs
     id="defs233" />
  <g
     inkscape:label="Layer 1"
     inkscape:groupmode="layer"
     id="layer1">
    <g
       id="g3198"
       transform="matrix(1.6528926,0,0,1.6528926,-36.079548,-36.25262)">
      <path
         id="path3066"
         style="color:#000000;fill:#000000;stroke-width:11.1125;-inkscape-stroke:none"
         d="m 32.695162,23.709147 c -5.924627,0 -10.867037,4.942409 -10.867037,10.867037 V 55.70306 c 0,5.924628 4.942408,10.867037 10.867037,10.867037 h 42.293026 c 5.924629,0 10.869104,-4.942408 10.869104,-10.867037 V 34.576184 c 0,-5.924629 -4.944476,-10.867037 -10.869104,-10.867037 z m 0,5.555217 h 42.293542 c 2.942589,0 5.311304,2.369232 5.311304,5.31182 V 55.70306 c 0,2.942588 -2.368715,5.311304 -5.311304,5.311304 H 32.695162 c -2.942588,0 -5.311821,-2.368716 -5.311821,-5.311304 V 34.576184 c 0,-2.942588 2.369233,-5.31182 5.311821,-5.31182 z" />
      <rect
         style="fill:#000000;stroke:none;stroke-width:1.44507"
         id="rect2790"
         width="23.869493"
         height="12.059855"
         x="41.906929"
         y="72.125832"
         rx="3.0115333"
         ry="3.0115333" />
    </g>
  </g>
</svg>
