<?xml version="1.0" encoding="UTF-8" standalone="no"?>
<!-- Created with Inkscape (http://www.inkscape.org/) -->

<svg
   width="400"
   height="400"
   viewBox="0 0 105.83333 105.83333"
   version="1.1"
   id="svg236"
   inkscape:version="1.3 (0e150ed6c4, 2023-07-21)"
   sodipodi:docname="workspace.svg"
   xmlns:inkscape="http://www.inkscape.org/namespaces/inkscape"
   xmlns:sodipodi="http://sodipodi.sourceforge.net/DTD/sodipodi-0.dtd"
   xmlns="http://www.w3.org/2000/svg"
   xmlns:svg="http://www.w3.org/2000/svg">
  <sodipodi:namedview
     id="namedview238"
     pagecolor="#505050"
     bordercolor="#eeeeee"
     borderopacity="1"
     inkscape:showpageshadow="0"
     inkscape:pageopacity="0"
     inkscape:pagecheckerboard="0"
     inkscape:deskcolor="#505050"
     inkscape:document-units="mm"
     showgrid="false"
     inkscape:zoom="0.97097778"
     inkscape:cx="240.99419"
     inkscape:cy="274.98054"
     inkscape:window-width="1660"
     inkscape:window-height="873"
     inkscape:window-x="0"
     inkscape:window-y="0"
     inkscape:window-maximized="1"
     inkscape:current-layer="layer1" />
  <defs
     id="defs233" />
  <g
     inkscape:label="Layer 1"
     inkscape:groupmode="layer"
     id="layer1">
    <rect
       style="fill:#ff0000;stroke:#3400e3;stroke-width:8.46667;stroke-dasharray:none;stroke-opacity:1"
       id="rect995"
       width="26.458334"
       height="52.916668"
       x="118.83985"
       y="27.929518"
       rx="13.229167"
       ry="13.229167" />
    <rect
       style="fill:#00ff00;stroke:#00ff00;stroke-width:2.64583;stroke-dasharray:none;stroke-opacity:1"
       id="rect256"
       width="26.458334"
       height="52.916668"
       x="118.83985"
       y="27.929518"
       rx="13.229167"
       ry="13.229167" />
    <rect
       style="fill:#ff0000;stroke:none;stroke-width:2.64583;stroke-dasharray:none;stroke-opacity:1"
       id="rect307"
       width="26.458334"
       height="52.916668"
       x="118.83985"
       y="27.929518"
       rx="13.229167"
       ry="13.229167" />
    <path
       id="path3439"
       style="color:#000000;fill:#ffffff;stroke:none;stroke-width:18.1716;-inkscape-stroke:none"
       d="M 273.56332,-1.8333604e-6 C 263.07679,-1.8333604e-6 254.63454,8.4422442 254.63454,18.92878 v 37.857563 c 0,10.486535 8.44225,18.928783 18.92878,18.928783 10.48654,0 18.92879,-8.442248 18.92879,-18.928783 V 18.92878 C 292.49211,8.4422442 284.04986,-1.8333604e-6 273.56332,-1.8333604e-6 Z M 248.57585,34.828957 a 3.0278479,3.0278479 0 0 0 -3.02786,3.027866 v 18.92952 c 0,14.345345 11.03281,26.323469 25.00226,27.847492 h -0.014 v 18.171635 a 3.0278479,3.0278479 0 0 0 3.02786,3.02787 3.0278479,3.0278479 0 0 0 3.02787,-3.02787 V 84.633835 h -0.0148 c 13.96916,-1.523943 25.00001,-13.50209 25.00001,-27.847492 v -18.92952 a 3.0278479,3.0278479 0 0 0 -3.02786,-3.027866 3.0278479,3.0278479 0 0 0 -3.02787,3.027866 v 18.92952 c 0,12.111959 -9.84543,21.957387 -21.95739,21.957387 -12.11195,0 -21.95738,-9.845428 -21.95738,-21.957387 v -18.92952 h -0.003 a 3.0278479,3.0278479 0 0 0 -3.02787,-3.027866 z" />
    <path
       style="color:#000000;fill:#ff0000;stroke:none;stroke-width:12.7;-inkscape-stroke:none"
       d="m 195.27532,17.874618 c 7.32896,0 13.22917,5.900208 13.22917,13.229167 v 26.458334 c 0,7.328958 -5.90021,13.229167 -13.22917,13.229167 -7.32896,0 -13.22917,-5.900209 -13.22917,-13.229167 V 31.103785 c 0,-7.328959 5.90021,-13.229167 13.22917,-13.229167 z"
       id="path3388" />
    <path
       id="path3390"
       style="color:#000000;fill:#ff0000;stroke:none;-inkscape-stroke:none"
       d="m 175.69589,44.332478 v 13.229683 c 0,10.736991 8.84321,19.578133 19.5802,19.578133 10.73699,0 19.57813,-8.841143 19.57813,-19.578133 V 44.332478 h -4.2323 v 13.229683 c 0,8.464954 -6.88088,15.345834 -15.34583,15.345834 -8.46496,0 -15.34584,-6.88088 -15.34584,-15.345834 V 44.332478 Z m 8.46666,0 v 13.229683 c 0,6.19292 4.92062,11.113534 11.11354,11.113534 6.19292,0 11.11146,-4.920614 11.11146,-11.113534 V 44.332478 h -4.23281 v 13.229683 c 0,3.920884 -2.95777,6.879167 -6.87865,6.879167 -3.92089,0 -6.87917,-2.958283 -6.87917,-6.879167 V 44.332478 Z" />
    <path
       style="color:#000000;fill:#f9f9f9;stroke-width:4.23333;-inkscape-stroke:none"
       d="m 195.27532,17.874618 c 7.32896,0 13.22917,5.900208 13.22917,13.229167 v 26.458334 c 0,7.328958 -5.90021,13.229167 -13.22917,13.229167 -7.32896,0 -13.22917,-5.900209 -13.22917,-13.229167 V 31.103785 c 0,-7.328959 5.90021,-13.229167 13.22917,-13.229167 z"
       id="path3392" />
    <path
       id="path3394"
       style="fill:#ff0000;stroke-width:2.64583"
       d="m 195.27532,17.874618 c 7.32896,0 13.22917,5.900208 13.22917,13.229167 v 26.458334 c 0,7.328958 -5.90021,13.229167 -13.22917,13.229167 -7.32896,0 -13.22917,-5.900209 -13.22917,-13.229167 V 31.103785 c 0,-7.328959 5.90021,-13.229167 13.22917,-13.229167 z" />
    <circle
       style="fill:#ff0000;fill-opacity:1;stroke:none;stroke-width:5.13883;stroke-dasharray:none;stroke-opacity:1"
       id="circle3396"
       cx="212.73807"
       cy="44.332478"
       r="2.1161375" />
    <circle
       style="fill:#ff0000;fill-opacity:1;stroke:none;stroke-width:5.13883;stroke-dasharray:none;stroke-opacity:1"
       id="circle3398"
       cx="177.81201"
       cy="44.332478"
       r="2.1161375" />
    <circle
       style="fill:#ff0000;fill-opacity:1;stroke:none;stroke-width:5.13883;stroke-dasharray:none;stroke-opacity:1"
       id="circle3400"
       cx="195.27608"
       cy="89.724899"
       r="2.1161375" />
    <rect
       style="fill:#ff0000;fill-opacity:1;stroke:none;stroke-width:12.7;stroke-dasharray:none;stroke-opacity:1"
       id="rect3402"
       width="0.0010354243"
       height="9.3033533"
       x="195.27504"
       y="77.140289" />
    <rect
       style="fill:#ff0000;fill-opacity:1;stroke:none;stroke-width:12.5057;stroke-dasharray:none;stroke-opacity:1"
       id="rect3404"
       width="4.232275"
       height="12.7"
       x="193.15994"
       y="77.024902" />
    <rect
       style="fill:#7a00ff;fill-opacity:1;stroke:none;stroke-width:11.1125"
       id="rect1514"
       width="84.666679"
       height="52.916656"
       x="138.65421"
       y="-162.14691"
       rx="5.2916718"
       ry="5.2916718" />
    <rect
       style="fill:#000000;stroke-width:7.47049"
       id="rect1308"
       width="10.583333"
       height="10.583333"
       x="143.94588"
       y="-156.85524" />
    <rect
       style="fill:#000000;stroke-width:7.47049"
       id="rect1310"
       width="10.583333"
       height="10.583333"
       x="159.82088"
       y="-156.85524" />
    <rect
       style="fill:#000000;stroke-width:7.47049"
       id="rect1312"
       width="10.583333"
       height="10.583333"
       x="175.69588"
       y="-156.85524" />
    <rect
       style="fill:#000000;stroke-width:7.47049"
       id="rect1314"
       width="10.583333"
       height="10.583333"
       x="191.57088"
       y="-156.85524" />
    <rect
       style="fill:#000000;stroke-width:7.47049"
       id="rect1316"
       width="10.583333"
       height="10.583333"
       x="207.44588"
       y="-156.85524" />
    <rect
       style="fill:#000000;stroke-width:7.47049"
       id="rect1318"
       width="10.583333"
       height="10.583333"
       x="143.94588"
       y="-140.98022" />
    <rect
       style="fill:#000000;stroke-width:7.47049"
       id="rect1320"
       width="10.583333"
       height="10.583333"
       x="159.82088"
       y="-140.98022" />
    <rect
       style="fill:#000000;stroke-width:7.47049"
       id="rect1322"
       width="10.583333"
       height="10.583333"
       x="175.69588"
       y="-140.98022" />
    <rect
       style="fill:#000000;stroke-width:7.47049"
       id="rect1324"
       width="10.583333"
       height="10.583333"
       x="191.57088"
       y="-140.98022" />
    <rect
       style="fill:#000000;stroke-width:7.47049"
       id="rect1326"
       width="10.583333"
       height="10.583333"
       x="207.44588"
       y="-140.98022" />
    <rect
       style="fill:#000000;stroke-width:14.941"
       id="rect1328"
       width="42.33334"
       height="10.583333"
       x="159.82088"
       y="-125.10522" />
    <path
       style="fill:#ffcc00;stroke-width:10.2315"
       d="m 38.112519,-160.76857 c 5.29167,0 5.29167,0 5.29167,0 v 5.29167 h -5.29167 z"
       id="path1388" />
    <path
       style="fill:#ffcc00;stroke-width:10.2315"
       d="m 38.112519,-113.14358 c 5.29167,0 5.29167,0 5.29167,0 v 5.29167 h -5.29167 z"
       id="path1400" />
    <path
       style="fill:#ffcc00;stroke-width:10.2315"
       d="m 117.48754,-160.76857 c 5.29167,0 5.29167,0 5.29167,0 v 5.29167 h -5.29167 z"
       id="path1402" />
    <path
       style="fill:#ffcc00;stroke-width:10.2315"
       d="m 117.48754,-113.14358 c 5.29167,0 5.29167,0 5.29167,0 v 5.29167 h -5.29167 z"
       id="path1404" />
    <text
       xml:space="preserve"
       style="font-size:5.76934px;fill:#ff0000;stroke-width:20.1927"
       x="5.9845481"
       y="24.561506"
       id="text11736"
       transform="scale(0.66043942,1.5141434)"><tspan
         sodipodi:role="line"
         id="tspan11734"
         style="stroke-width:20.1927;fill:#ff0000"
         x="5.9845481"
         y="24.561506">WORKSPACE DO NOT EXPORT OR REMOVE THIS TEXT</tspan></text>
  </g>
</svg>
