<?xml version="1.0" encoding="UTF-8" standalone="no"?>
<!-- Created with Inkscape (http://www.inkscape.org/) -->

<svg
   width="400"
   height="400"
   viewBox="0 0 105.83333 105.83333"
   version="1.1"
   id="svg236"
   inkscape:version="1.2.2 (b0a8486541, 2022-12-01)"
   sodipodi:docname="keyboard.svg"
   xmlns:inkscape="http://www.inkscape.org/namespaces/inkscape"
   xmlns:sodipodi="http://sodipodi.sourceforge.net/DTD/sodipodi-0.dtd"
   xmlns="http://www.w3.org/2000/svg"
   xmlns:svg="http://www.w3.org/2000/svg">
  <sodipodi:namedview
     id="namedview238"
     pagecolor="#505050"
     bordercolor="#eeeeee"
     borderopacity="1"
     inkscape:showpageshadow="0"
     inkscape:pageopacity="0"
     inkscape:pagecheckerboard="0"
     inkscape:deskcolor="#505050"
     inkscape:document-units="mm"
     showgrid="false"
     inkscape:zoom="0.65110177"
     inkscape:cx="126.7083"
     inkscape:cy="244.96939"
     inkscape:window-width="1660"
     inkscape:window-height="873"
     inkscape:window-x="0"
     inkscape:window-y="0"
     inkscape:window-maximized="1"
     inkscape:current-layer="layer1" />
  <defs
     id="defs233" />
  <g
     inkscape:label="Layer 1"
     inkscape:groupmode="layer"
     id="layer1">
    <path
       id="rect1514"
       style="fill:#000000;fill-opacity:1;stroke:none;stroke-width:13.8906"
       d="m 6.6145812,19.843751 c -3.664475,0 -6.6145870333333,2.950112 -6.6145870333333,6.614587 v 52.916657 c 0,3.664487 2.9501120333333,6.614587 6.6145870333333,6.614587 H 99.218742 c 3.664488,0 6.614598,-2.9501 6.614598,-6.614587 V 26.458338 c 0,-3.664475 -2.95011,-6.614587 -6.614598,-6.614587 z m 0,6.614587 H 19.843743 V 39.6875 H 6.6145812 Z m 19.8437488,0 H 39.687492 V 39.6875 H 26.45833 Z m 19.84375,0 H 59.531245 V 39.6875 H 46.30208 Z m 19.843749,0 H 79.374995 V 39.6875 H 66.145829 Z m 19.843749,0 H 99.218742 V 39.6875 H 85.989578 Z M 6.6145812,46.302087 H 19.843743 V 59.531249 H 6.6145812 Z m 19.8437488,0 H 39.687492 V 59.531249 H 26.45833 Z m 19.84375,0 H 59.531245 V 59.531249 H 46.30208 Z m 19.843749,0 H 79.374995 V 59.531249 H 66.145829 Z m 19.843749,0 H 99.218742 V 59.531249 H 85.989578 Z M 26.45833,66.145837 H 79.374995 V 79.374995 H 26.45833 Z" />
  </g>
</svg>
