<?xml version="1.0" encoding="UTF-8" standalone="no"?>
<!-- Created with Inkscape (http://www.inkscape.org/) -->

<svg
   width="400"
   height="400"
   viewBox="0 0 105.83333 105.83333"
   version="1.1"
   id="svg236"
   inkscape:version="1.2.2 (b0a8486541, 2022-12-01)"
   sodipodi:docname="icon_template.svg"
   xmlns:inkscape="http://www.inkscape.org/namespaces/inkscape"
   xmlns:sodipodi="http://sodipodi.sourceforge.net/DTD/sodipodi-0.dtd"
   xmlns="http://www.w3.org/2000/svg"
   xmlns:svg="http://www.w3.org/2000/svg">
  <sodipodi:namedview
     id="namedview238"
     pagecolor="#505050"
     bordercolor="#eeeeee"
     borderopacity="1"
     inkscape:showpageshadow="0"
     inkscape:pageopacity="0"
     inkscape:pagecheckerboard="0"
     inkscape:deskcolor="#505050"
     inkscape:document-units="mm"
     showgrid="false"
     inkscape:zoom="1.0255707"
     inkscape:cx="682.54682"
     inkscape:cy="131.1465"
     inkscape:window-width="1660"
     inkscape:window-height="873"
     inkscape:window-x="0"
     inkscape:window-y="0"
     inkscape:window-maximized="1"
     inkscape:current-layer="layer1" />
  <defs
     id="defs233" />
  <g
     inkscape:label="Layer 1"
     inkscape:groupmode="layer"
     id="layer1">
    <path
       id="path3439"
       style="color:#000000;fill:#000000;stroke:none;stroke-width:18.1716;-inkscape-stroke:none"
       d="M 52.917406,-1.8333604e-6 C 42.430872,-1.8333604e-6 33.988624,8.4422442 33.988624,18.92878 v 37.857563 c 0,10.486535 8.442248,18.928783 18.928782,18.928783 10.486536,0 18.928783,-8.442248 18.928783,-18.928783 V 18.92878 C 71.846189,8.4422442 63.403942,-1.8333604e-6 52.917406,-1.8333604e-6 Z M 27.929935,34.828957 a 3.0278479,3.0278479 0 0 0 -3.027866,3.027866 v 18.92952 c 0,14.345345 11.032814,26.323469 25.002259,27.847492 h -0.01402 v 18.171635 a 3.0278479,3.0278479 0 0 0 3.027866,3.02787 3.0278479,3.0278479 0 0 0 3.027866,-3.02787 V 84.633835 H 55.93125 C 69.900409,83.109892 80.931264,71.131745 80.931264,56.786343 v -18.92952 a 3.0278479,3.0278479 0 0 0 -3.027866,-3.027866 3.0278479,3.0278479 0 0 0 -3.027866,3.027866 v 18.92952 c 0,12.111959 -9.84543,21.957387 -21.957386,21.957387 -12.111957,0 -21.957388,-9.845428 -21.957388,-21.957387 v -18.92952 h -0.003 a 3.0278479,3.0278479 0 0 0 -3.027865,-3.027866 z" />
  </g>
</svg>
