<?xml version="1.0" encoding="UTF-8" standalone="no"?>
<!-- Created with Inkscape (http://www.inkscape.org/) -->

<svg
   width="400"
   height="400"
   viewBox="0 0 105.83333 105.83333"
   version="1.1"
   id="svg236"
   inkscape:version="1.2.2 (b0a8486541, 2022-12-01)"
   sodipodi:docname="mic-off.svg"
   xmlns:inkscape="http://www.inkscape.org/namespaces/inkscape"
   xmlns:sodipodi="http://sodipodi.sourceforge.net/DTD/sodipodi-0.dtd"
   xmlns="http://www.w3.org/2000/svg"
   xmlns:svg="http://www.w3.org/2000/svg">
  <sodipodi:namedview
     id="namedview238"
     pagecolor="#505050"
     bordercolor="#eeeeee"
     borderopacity="1"
     inkscape:showpageshadow="0"
     inkscape:pageopacity="0"
     inkscape:pagecheckerboard="0"
     inkscape:deskcolor="#505050"
     inkscape:document-units="mm"
     showgrid="false"
     inkscape:zoom="0.33801899"
     inkscape:cx="48.813826"
     inkscape:cy="569.49464"
     inkscape:window-width="1660"
     inkscape:window-height="873"
     inkscape:window-x="0"
     inkscape:window-y="0"
     inkscape:window-maximized="1"
     inkscape:current-layer="layer1" />
  <defs
     id="defs233" />
  <g
     inkscape:label="Layer 1"
     inkscape:groupmode="layer"
     id="layer1">
    <path
       id="path3439"
       style="color:#000000;fill:#000000;stroke:none;stroke-width:18.1716;-inkscape-stroke:none"
       d="M 52.917183 0 C 42.43066 0 33.988623 8.4420351 33.988623 18.92856 L 33.988623 56.786198 C 33.988623 57.849834 34.079977 58.891007 34.247005 59.905904 L 71.846261 22.306649 L 71.846261 18.92856 C 71.846261 8.4420351 63.403709 -2.5066344e-15 52.917183 0 z M 27.930078 34.828882 A 3.0278479 3.0278479 0 0 0 24.901839 37.856604 L 24.901839 56.786198 C 24.901839 60.462002 25.631014 63.980433 26.943575 67.209334 L 31.704008 62.448901 C 31.221502 60.641499 30.960901 58.74406 30.960901 56.786198 L 30.960901 37.856604 L 30.9578 37.856604 A 3.0278479 3.0278479 0 0 0 27.930078 34.828882 z M 80.733057 36.781734 L 74.875533 42.639258 L 74.875533 56.786198 C 74.875533 68.898145 65.030161 78.743514 52.918217 78.743514 C 48.863032 78.743514 45.0647 77.635529 41.8021 75.712691 L 37.443193 80.071598 C 41.096972 82.517674 45.342216 84.135868 49.904447 84.633594 L 49.890495 84.633594 L 49.890495 102.80561 A 3.0278479 3.0278479 0 0 0 52.918217 105.83333 A 3.0278479 3.0278479 0 0 0 55.945939 102.80561 L 55.945939 84.633594 L 55.93147 84.633594 C 69.900615 83.109652 80.931494 71.131586 80.931494 56.786198 L 80.931494 37.856604 A 3.0278479 3.0278479 0 0 0 80.733057 36.781734 z M 71.846261 45.66853 L 44.011267 73.503524 C 46.663233 74.914011 49.6926 75.715275 52.917183 75.715275 C 63.403709 75.715275 71.846261 67.272722 71.846261 56.786198 L 71.846261 45.66853 z " />
    <path
       id="rect163"
       style="fill:#000000;stroke-width:14.1426;fill-opacity:1"
       transform="rotate(-45)"
       d="m -43.094934,69.618759 h 86.189868 c 2.890056,0 5.216708,2.326652 5.216708,5.216708 0,2.890056 -2.326652,5.216708 -5.216708,5.216708 h -86.189868 c -2.890056,0 -5.216708,-2.326652 -5.216708,-5.216708 0,-2.890056 2.326652,-5.216708 5.216708,-5.216708 z" />
  </g>
</svg>
