<?xml version="1.0" encoding="UTF-8" standalone="no"?>
<!-- Created with Inkscape (http://www.inkscape.org/) -->

<svg
   width="400"
   height="400"
   viewBox="0 0 105.83333 105.83333"
   version="1.1"
   id="svg236"
   inkscape:version="1.3 (0e150ed6c4, 2023-07-21)"
   sodipodi:docname="workspace.svg"
   xmlns:inkscape="http://www.inkscape.org/namespaces/inkscape"
   xmlns:sodipodi="http://sodipodi.sourceforge.net/DTD/sodipodi-0.dtd"
   xmlns="http://www.w3.org/2000/svg"
   xmlns:svg="http://www.w3.org/2000/svg">
  <sodipodi:namedview
     id="namedview238"
     pagecolor="#505050"
     bordercolor="#eeeeee"
     borderopacity="1"
     inkscape:showpageshadow="0"
     inkscape:pageopacity="0"
     inkscape:pagecheckerboard="0"
     inkscape:deskcolor="#505050"
     inkscape:document-units="mm"
     showgrid="false"
     inkscape:zoom="1.9884111"
     inkscape:cx="-12.069939"
     inkscape:cy="507.44034"
     inkscape:window-width="1660"
     inkscape:window-height="873"
     inkscape:window-x="0"
     inkscape:window-y="0"
     inkscape:window-maximized="1"
     inkscape:current-layer="layer1"
     showguides="false" />
  <defs
     id="defs233" />
  <g
     inkscape:label="Layer 1"
     inkscape:groupmode="layer"
     id="layer1">
    <g
       id="path8"
       transform="matrix(1.0464181,0,0,1.0464181,-2.1530427,-3.2434885)">
      <path
         style="color:#000000;fill:#f9f9f9;-inkscape-stroke:none"
         d="m 52.627279,4.4219523 c -3.26131,0 -5.88698,2.6256691 -5.88698,5.8869787 v 30.559375 c 0,3.26131 2.62567,5.88698 5.88698,5.88698 3.26131,0 5.886979,-2.62567 5.886979,-5.88698 V 10.308931 c 0,-3.2613096 -2.625669,-5.8869787 -5.886979,-5.8869787 z m 24.13341,15.2864057 a 5.886847,5.886847 0 0 0 -4.817793,2.936771 5.886847,5.886847 0 0 0 2.15439,8.041887 5.886847,5.886847 0 0 0 0.406693,0.197404 l -0.01602,0.02791 c 10.101914,8.403826 14.611516,22.015105 11.117151,35.056258 -4.006741,14.953352 -17.496462,25.30595 -32.977316,25.305949 -15.480851,0 -28.971609,-10.352077 -32.978348,-25.305432 -2.504213,-9.345846 -0.902123,-18.98862 3.925341,-26.795264 1.908034,-3.085538 4.326647,-5.877205 7.187675,-8.257894 a 5.886847,5.886847 0 0 0 0.0062,-0.0031 5.886847,5.886847 0 0 0 2.15439,-8.04137 5.886847,5.886847 0 0 0 -8.04137,-2.154907 5.886847,5.886847 0 0 0 -1.359607,1.086755 C 19.606244,25.029634 16.301029,28.839151 13.698389,33.054313 7.2255589,43.537526 5.0561739,56.4895 8.4036214,68.982353 13.759538,88.970921 31.933594,102.91568 52.627279,102.91568 c 20.693688,0 38.868249,-13.945799 44.224174,-33.934361 C 101.69834,50.892486 94.977717,31.842237 80.374939,20.716048 l -0.0093,0.01654 a 5.886847,5.886847 0 0 0 -0.381372,-0.241846 5.886847,5.886847 0 0 0 -3.223576,-0.782381 z"
         id="path11" />
      <path
         style="color:#000000;fill:#f9f9f9;-inkscape-stroke:none"
         d="m 52.626953,3.0996094 c -3.971356,0 -7.208984,3.2376281 -7.208984,7.2089846 v 30.560547 c 0,3.971356 3.237628,7.208984 7.208984,7.208984 3.971357,0 7.210938,-3.237628 7.210938,-7.208984 V 10.308594 c 0,-3.9713563 -3.239582,-7.2089846 -7.210938,-7.2089846 z m 0,2.6445312 c 2.551257,0 4.564453,2.0131965 4.564453,4.5644534 v 30.560547 c 0,2.551257 -2.013196,4.5625 -4.564453,4.5625 -2.551257,0 -4.564453,-2.011243 -4.564453,-4.5625 V 10.308594 c 0,-2.5512566 2.013196,-4.5644534 4.564453,-4.5644534 z M 76.697266,18.386719 c -2.449003,0.116775 -4.67451,1.474341 -5.900391,3.597656 -1.983407,3.434774 -0.7962,7.864418 2.638672,9.847656 l 0.01953,0.01172 0.01953,0.0098 c 0.05883,0.0314 0.120022,0.05814 0.179688,0.08789 9.701787,8.07931 14.0335,21.147075 10.673828,33.685547 -3.854118,14.383755 -16.81012,24.32422 -31.701172,24.324219 -14.891078,0 -27.845119,-9.940523 -31.699219,-24.324219 -2.408823,-8.989846 -0.86854,-18.254283 3.771485,-25.757812 1.832746,-2.963788 4.158216,-5.645631 6.910156,-7.935547 l -0.144531,0.09375 c 3.401923,-1.995065 4.578334,-6.395905 2.603515,-9.816407 -1.983006,-3.434724 -6.412854,-4.623498 -9.847656,-2.640625 l -0.002,0.002 h -0.002 c -0.608643,0.353306 -1.157727,0.798884 -1.638672,1.3125 -3.97902,3.299067 -7.352418,7.177171 -10.005859,11.474609 C 5.9129566,43.144604 3.68141,56.472557 7.125,69.324219 c 5.50974,20.562644 24.213978,34.914061 45.501953,34.914061 21.288023,0 39.992203,-14.351414 45.501953,-34.914061 C 103.11501,50.715806 96.201937,31.112833 81.175781,19.664062 l -1.208984,-0.921875 -0.152344,0.269532 c -0.988778,-0.416457 -2.03802,-0.676309 -3.117187,-0.625 z m 0.126953,2.642578 c 0.874076,-0.04156 1.740269,0.169803 2.498047,0.607422 0.09961,0.05806 0.198036,0.120109 0.292968,0.185547 l 0.08398,0.05664 c 14.085539,10.817953 20.567646,29.246539 15.875,46.759766 C 90.37213,88.053109 72.726265,101.5918 52.626953,101.5918 32.5276,101.5918 14.883723,88.055077 9.6816406,68.640625 6.4303423,56.506606 8.5378805,43.931176 14.824219,33.75 17.35101,29.65768 20.559926,25.95786 24.363281,22.824219 l 0.06836,-0.05664 0.06055,-0.06445 c 0.307322,-0.331151 0.660139,-0.61486 1.050782,-0.841797 2.196459,-1.267992 4.966298,-0.524535 6.234375,1.671875 1.266361,2.193413 0.527324,4.957988 -1.66211,6.228516 l -0.08203,0.03906 -0.117187,0.09766 c -2.97011,2.471458 -5.483479,5.372797 -7.466797,8.580079 -5.014894,8.109742 -6.677723,18.130204 -4.078125,27.832031 4.15937,15.522984 18.185266,26.287109 34.255859,26.287109 16.070626,10e-7 30.096503,-10.76419 34.255859,-26.287109 C 90.409401,53.14916 86.033,39.452673 76.148442,30.67774 l 0.236329,-0.412109 -1.34961,-0.591797 c -0.09714,-0.04263 -0.191223,-0.09134 -0.285156,-0.140625 -2.18877,-1.270848 -2.928521,-4.033448 -1.662109,-6.226562 0.777382,-1.346484 2.183312,-2.203292 3.736328,-2.277344 z"
         id="path12" />
    </g>
  </g>
</svg>
