<?xml version="1.0" encoding="UTF-8" standalone="no"?>
<!-- Created with Inkscape (http://www.inkscape.org/) -->

<svg
   width="400"
   height="400"
   viewBox="0 0 105.83333 105.83333"
   version="1.1"
   id="svg236"
   inkscape:version="1.3 (0e150ed6c4, 2023-07-21)"
   sodipodi:docname="restart.svg"
   xmlns:inkscape="http://www.inkscape.org/namespaces/inkscape"
   xmlns:sodipodi="http://sodipodi.sourceforge.net/DTD/sodipodi-0.dtd"
   xmlns="http://www.w3.org/2000/svg"
   xmlns:svg="http://www.w3.org/2000/svg">
  <sodipodi:namedview
     id="namedview238"
     pagecolor="#505050"
     bordercolor="#eeeeee"
     borderopacity="1"
     inkscape:showpageshadow="0"
     inkscape:pageopacity="0"
     inkscape:pagecheckerboard="0"
     inkscape:deskcolor="#505050"
     inkscape:document-units="mm"
     showgrid="false"
     inkscape:zoom="1.2830835"
     inkscape:cx="190.94626"
     inkscape:cy="208.87183"
     inkscape:window-width="1660"
     inkscape:window-height="873"
     inkscape:window-x="0"
     inkscape:window-y="0"
     inkscape:window-maximized="1"
     inkscape:current-layer="layer1" />
  <defs
     id="defs233">
    <rect
       x="-406.38822"
       y="90.81736"
       width="73.46625"
       height="44.465568"
       id="rect1" />
  </defs>
  <g
     inkscape:label="Layer 1"
     inkscape:groupmode="layer"
     id="layer1">
    <path
       id="path8"
       style="color:#000000;fill:#f9f9f9;stroke-width:0.827736;-inkscape-stroke:none"
       inkscape:transform-center-x="1.8926622"
       inkscape:transform-center-y="3.1943789"
       d="m 52.91624,9.1154527 c -11.181326,0 -21.404307,4.2346453 -29.159324,11.1752463 l 6.144118,10.641848 c 5.780299,-6.05211 13.934897,-9.815019 23.015206,-9.815019 17.632792,0 31.798078,14.165712 31.798078,31.798506 0,0.0043 -4.26e-4,0.0085 -4.28e-4,0.01283 h -9.114802 l 7.558669,13.09154 7.558668,13.091967 7.558666,-13.091967 7.558239,-13.09154 h -9.115656 c 0,-0.0043 4.29e-4,-0.0085 4.29e-4,-0.01283 0,-24.119443 -19.682422,-43.8005813 -43.801863,-43.8005813 z M 15.116911,26.726111 7.5582419,39.81765 1.8333333e-6,52.909617 H 9.1156586 v 0.0064 c 0,24.119442 19.6811384,43.801864 43.8005814,43.801864 11.180344,0 21.402511,-4.234546 29.157613,-11.17439 L 75.929307,74.900804 c -5.780157,6.051098 -13.933579,9.813308 -23.013067,9.813308 -17.632794,0 -31.798506,-14.165285 -31.798506,-31.798078 v -0.0064 h 9.116513 L 22.675579,39.81765 Z" />
    <text
       xml:space="preserve"
       transform="scale(0.26458333)"
       id="text1"
       style="white-space:pre;shape-inside:url(#rect1);display:inline;fill:#f9f9f9;stroke-width:44" />
  </g>
</svg>
