<?xml version="1.0" encoding="UTF-8" standalone="no"?>
<!-- Created with Inkscape (http://www.inkscape.org/) -->

<svg
   width="400"
   height="400"
   viewBox="0 0 105.83333 105.83333"
   version="1.1"
   id="svg236"
   inkscape:version="1.2.2 (b0a8486541, 2022-12-01)"
   sodipodi:docname="temp.svg"
   xmlns:inkscape="http://www.inkscape.org/namespaces/inkscape"
   xmlns:sodipodi="http://sodipodi.sourceforge.net/DTD/sodipodi-0.dtd"
   xmlns="http://www.w3.org/2000/svg"
   xmlns:svg="http://www.w3.org/2000/svg">
  <sodipodi:namedview
     id="namedview238"
     pagecolor="#505050"
     bordercolor="#eeeeee"
     borderopacity="1"
     inkscape:showpageshadow="0"
     inkscape:pageopacity="0"
     inkscape:pagecheckerboard="0"
     inkscape:deskcolor="#505050"
     inkscape:document-units="mm"
     showgrid="false"
     inkscape:zoom="0.5681323"
     inkscape:cx="69.52606"
     inkscape:cy="494.60311"
     inkscape:window-width="1660"
     inkscape:window-height="867"
     inkscape:window-x="0"
     inkscape:window-y="0"
     inkscape:window-maximized="1"
     inkscape:current-layer="layer1" />
  <defs
     id="defs233" />
  <g
     inkscape:label="Layer 1"
     inkscape:groupmode="layer"
     id="layer1">
    <path
       id="path389"
       style="color:#000000;fill:#000000;stroke-linecap:round;stroke-linejoin:round;-inkscape-stroke:none;paint-order:markers stroke fill"
       d="m 54.770042,6.0298645 c -5.967893,0 -10.888741,4.9208485 -10.888741,10.8887415 v 41.418143 5.068942 c -5.381323,3.55729 -8.949325,9.660742 -8.949325,16.559712 0,10.912043 8.923956,19.838066 19.835999,19.838066 10.912043,0 19.837549,-8.926023 19.837549,-19.838066 0,-6.898235 -3.56786,-13.001237 -8.948808,-16.558679 V 58.336749 54.222272 16.918606 c 0,-5.967893 -4.91878,-10.8887415 -10.886674,-10.8887415 z m 0,7.4083335 c 1.991851,0 3.478341,1.488558 3.478341,3.480408 v 41.418143 9.692432 a 12.4285,12.4285 0 0 1 0.851627,0.282153 c 0.0047,-0.0021 0.0097,-0.0036 0.01447,-0.0057 4.347867,1.603383 7.519088,5.554314 8.013464,10.347172 a 12.4285,12.4285 0 0 1 0.0093,0.09353 c 0.01263,0.132028 0.0235,0.264654 0.03204,0.397909 a 12.4285,12.4285 0 0 1 0.01344,0.234611 c 0.0026,0.05725 0.0049,0.114618 0.0067,0.172082 a 12.4285,12.4285 0 0 1 0.0067,0.346749 c 1.19e-4,0.02266 0.0015,0.04501 0.0015,0.0677 0,0.294288 -0.01335,0.584915 -0.03307,0.873849 a 12.4285,12.4285 0 0 1 -0.0078,0.0987 c -0.490355,6.446161 -5.808477,11.457182 -12.388908,11.457182 -6.575863,0 -11.889268,-5.00406 -12.385807,-11.443746 a 12.4285,12.4285 0 0 1 -0.0098,-0.125574 c -0.019,-0.284514 -0.03193,-0.570679 -0.03193,-0.860395 v -0.0036 a 12.4285,12.4285 0 0 1 0,-0.0015 12.4285,12.4285 0 0 1 0,-0.0057 c 2.56e-4,-0.304388 0.01277,-0.605711 0.03411,-0.904337 a 12.4285,12.4285 0 0 1 0.0016,-0.02584 c 0.364566,-4.960842 3.588519,-9.074465 8.049638,-10.718209 0.0068,0.003 0.01388,0.0053 0.02067,0.0083 a 12.4285,12.4285 0 0 1 0.842842,-0.27957 V 58.336749 16.918606 c 0,-1.99185 1.489075,-3.480408 3.480925,-3.480408 z M 31.22781,17.050897 v 7.408334 h 7.408333 v -7.408334 z m 0,14.816667 v 7.408333 h 7.408333 v -7.408333 z m 0,14.816667 v 7.408333 h 7.408333 v -7.408333 z" />
  </g>
</svg>
