<?xml version="1.0" encoding="UTF-8" standalone="no"?>
<!-- Created with Inkscape (http://www.inkscape.org/) -->

<svg
   width="400"
   height="400"
   viewBox="0 0 105.83333 105.83333"
   version="1.1"
   id="svg236"
   inkscape:version="1.2.2 (b0a8486541, 2022-12-01)"
   sodipodi:docname="temp.svg"
   xmlns:inkscape="http://www.inkscape.org/namespaces/inkscape"
   xmlns:sodipodi="http://sodipodi.sourceforge.net/DTD/sodipodi-0.dtd"
   xmlns="http://www.w3.org/2000/svg"
   xmlns:svg="http://www.w3.org/2000/svg">
  <sodipodi:namedview
     id="namedview238"
     pagecolor="#505050"
     bordercolor="#eeeeee"
     borderopacity="1"
     inkscape:showpageshadow="0"
     inkscape:pageopacity="0"
     inkscape:pagecheckerboard="0"
     inkscape:deskcolor="#505050"
     inkscape:document-units="mm"
     showgrid="false"
     inkscape:zoom="0.5681323"
     inkscape:cx="-20.241764"
     inkscape:cy="309.787"
     inkscape:window-width="1706"
     inkscape:window-height="960"
     inkscape:window-x="0"
     inkscape:window-y="0"
     inkscape:window-maximized="1"
     inkscape:current-layer="layer1" />
  <defs
     id="defs233" />
  <g
     inkscape:label="Layer 1"
     inkscape:groupmode="layer"
     id="layer1">
    <path
       id="path389"
       style="color:#000000;fill:#000000;stroke-width:1.1286;stroke-linecap:round;stroke-linejoin:round;-inkscape-stroke:none;paint-order:markers stroke fill"
       d="M 55.008395,-1.0833333e-6 C 48.273003,-1.0833333e-6 42.71931,5.5536914 42.71931,12.289083 v 46.744712 5.720833 c -6.073387,4.014774 -10.100251,10.903158 -10.100251,18.689369 0,12.315387 10.07162,22.389333 22.387003,22.389333 12.315383,0 22.388751,-10.073946 22.388751,-22.389333 0,-7.785381 -4.026703,-14.673258 -10.099667,-18.688204 V 59.033795 54.390178 12.289083 C 67.295146,5.5536914 61.743788,-1.0833333e-6 55.008395,-1.0833333e-6 Z m 0,8.3610804833333 c 2.248012,0 3.925671,1.6799936 3.925671,3.9280036 v 46.744712 10.938926 a 14.026864,14.026864 0 0 1 0.961151,0.318438 c 0.0053,-0.0024 0.01095,-0.0041 0.01633,-0.0064 4.907023,1.809587 8.486078,6.268625 9.044033,11.677867 a 14.026864,14.026864 0 0 1 0.0105,0.105559 c 0.01425,0.149008 0.02652,0.29869 0.03616,0.449083 a 14.026864,14.026864 0 0 1 0.01517,0.264782 c 0.0029,0.06461 0.0055,0.129359 0.0076,0.194213 a 14.026864,14.026864 0 0 1 0.0076,0.391342 c 1.34e-4,0.02557 0.0017,0.0508 0.0017,0.07641 0,0.332135 -0.01507,0.660137 -0.03732,0.98623 a 14.026864,14.026864 0 0 1 -0.0088,0.111394 c -0.553416,7.275167 -6.555475,12.930635 -13.98218,12.930635 -7.42155,0 -13.418284,-5.647612 -13.97868,-12.915471 a 14.026864,14.026864 0 0 1 -0.01106,-0.141724 c -0.02144,-0.321104 -0.03604,-0.644071 -0.03604,-0.971046 v -0.0041 a 14.026864,14.026864 0 0 1 0,-0.0017 14.026864,14.026864 0 0 1 0,-0.0064 c 2.89e-4,-0.343534 0.01441,-0.683609 0.0385,-1.020639 a 14.026864,14.026864 0 0 1 0.0018,-0.02916 c 0.411451,-5.59883 4.05002,-10.241485 9.08486,-12.096622 0.0077,0.0034 0.01566,0.006 0.02333,0.0094 a 14.026864,14.026864 0 0 1 0.951236,-0.315524 V 59.033795 12.289083 c 0,-2.24801 1.680577,-3.9280036 3.928588,-3.9280036 z M 28.43852,12.438388 v 8.361081 h 8.36108 v -8.361081 z m 0,16.72216 v 8.36108 h 8.36108 v -8.36108 z m 0,16.722161 v 8.361079 h 8.36108 v -8.361079 z" />
  </g>
</svg>
