<?xml version="1.0" encoding="UTF-8" standalone="no"?>
<!-- Created with Inkscape (http://www.inkscape.org/) -->

<svg
   width="400"
   height="400"
   viewBox="0 0 105.83333 105.83333"
   version="1.1"
   id="svg236"
   inkscape:version="1.2.2 (b0a8486541, 2022-12-01)"
   sodipodi:docname="volume_3.svg"
   xmlns:inkscape="http://www.inkscape.org/namespaces/inkscape"
   xmlns:sodipodi="http://sodipodi.sourceforge.net/DTD/sodipodi-0.dtd"
   xmlns="http://www.w3.org/2000/svg"
   xmlns:svg="http://www.w3.org/2000/svg">
  <sodipodi:namedview
     id="namedview238"
     pagecolor="#505050"
     bordercolor="#eeeeee"
     borderopacity="1"
     inkscape:showpageshadow="0"
     inkscape:pageopacity="0"
     inkscape:pagecheckerboard="0"
     inkscape:deskcolor="#505050"
     inkscape:document-units="mm"
     showgrid="false"
     inkscape:zoom="0.92731645"
     inkscape:cx="30.733845"
     inkscape:cy="296.01545"
     inkscape:window-width="1706"
     inkscape:window-height="960"
     inkscape:window-x="0"
     inkscape:window-y="0"
     inkscape:window-maximized="1"
     inkscape:current-layer="layer1" />
  <defs
     id="defs233" />
  <g
     inkscape:label="Layer 1"
     inkscape:groupmode="layer"
     id="layer1">
    <path
       id="path3166"
       style="fill:#000000;fill-opacity:1;stroke:none;stroke-width:41.7034;stroke-linecap:round;stroke-linejoin:round;stroke-dasharray:none"
       d="M 88.543701,94.634254 A 59.018491,59.018491 0 0 0 105.83333,52.90521 59.018491,59.018491 0 0 0 88.751762,11.447959 a 5.4288948,5.4288948 0 0 0 -0.230929,-0.248924 5.4288948,5.4288948 0 0 0 -7.677615,0 5.4288948,5.4288948 0 0 0 0,7.677615 5.4288948,5.4288948 0 0 0 0.06484,0.06338 48.160698,48.160698 0 0 1 14.067508,33.965584 48.160698,48.160698 0 0 1 -14.109492,34.051054 5.4288948,5.4288948 0 0 0 -8e-6,7.677617 5.4288948,5.4288948 0 0 0 7.677625,0 z" />
    <path
       id="path3168"
       style="fill:#000000;fill-opacity:1;stroke:none;stroke-width:30.195;stroke-linecap:round;stroke-linejoin:round;stroke-dasharray:none"
       d="m 73.311707,83.118955 a 5.4288948,5.4288948 0 0 0 0.03452,-0.03669 42.731802,42.731802 0 0 0 12.483626,-30.176639 42.731802,42.731802 0 0 0 -12.238075,-29.880843 5.4288948,5.4288948 0 0 0 -0.293914,-0.319404 5.4288948,5.4288948 0 0 0 -7.677614,0 5.4288948,5.4288948 0 0 0 0,7.677615 31.874011,31.874011 0 0 1 9.351845,22.522259 31.874011,31.874011 0 0 1 -9.331973,22.530883 5.4288948,5.4288948 0 0 0 -0.0054,0.0054 5.4288948,5.4288948 0 0 0 0,7.677617 5.4288948,5.4288948 0 0 0 7.677616,0 z" />
    <path
       id="path3170"
       style="fill:#000000;fill-opacity:1;stroke:none;stroke-width:18.6581;stroke-linecap:round;stroke-linejoin:round;stroke-dasharray:none"
       d="m 58.687452,71.594659 a 26.404768,26.404768 0 0 0 7.755591,-18.689449 26.404768,26.404768 0 0 0 -7.426069,-18.320182 5.4288948,5.4288948 0 0 0 -0.331399,-0.367389 5.4288948,5.4288948 0 0 0 -7.677616,0 5.4288948,5.4288948 0 0 0 0,7.677616 l -0.0037,0.0037 a 15.546978,15.546978 0 0 1 4.581078,11.006585 15.546978,15.546978 0 0 1 -4.564211,11.000958 5.4288948,5.4288948 0 0 0 -0.01121,0.01053 5.4288948,5.4288948 0 0 0 0,7.677616 5.4288948,5.4288948 0 0 0 7.677625,0 z" />
    <path
       id="path1441"
       style="color:#000000;fill:#000000;stroke-width:7.47238;stroke-linecap:round;stroke-linejoin:round;fill-opacity:1"
       d="M 33.234147 14.722616 A 3.7365637 3.7365637 0 0 0 30.388843 16.038814 L 16.782955 32.033187 L 3.7362061 32.033187 A 3.7365637 3.7365637 0 0 0 0 35.769393 L 0 70.042753 A 3.7365637 3.7365637 0 0 0 3.7362061 73.779476 L 16.782955 73.779476 L 30.388843 89.773332 A 3.7365637 3.7365637 0 0 0 33.234147 91.08798 L 36.751762 91.08798 A 3.7365637 3.7365637 0 0 0 40.488485 87.353324 L 40.488485 18.458822 A 3.7365637 3.7365637 0 0 0 36.751762 14.722616 L 33.234147 14.722616 z " />
  </g>
</svg>
