<?xml version="1.0" encoding="UTF-8" standalone="no"?>
<!-- Created with Inkscape (http://www.inkscape.org/) -->

<svg
   width="400"
   height="400"
   viewBox="0 0 105.83333 105.83333"
   version="1.1"
   id="svg236"
   inkscape:version="1.2 (dc2aedaf03, 2022-05-15)"
   sodipodi:docname="wifi-dc.svg"
   xmlns:inkscape="http://www.inkscape.org/namespaces/inkscape"
   xmlns:sodipodi="http://sodipodi.sourceforge.net/DTD/sodipodi-0.dtd"
   xmlns="http://www.w3.org/2000/svg"
   xmlns:svg="http://www.w3.org/2000/svg">
  <sodipodi:namedview
     id="namedview238"
     pagecolor="#505050"
     bordercolor="#eeeeee"
     borderopacity="1"
     inkscape:showpageshadow="0"
     inkscape:pageopacity="0"
     inkscape:pagecheckerboard="0"
     inkscape:deskcolor="#505050"
     inkscape:document-units="mm"
     showgrid="false"
     inkscape:zoom="0.64693624"
     inkscape:cx="721.09116"
     inkscape:cy="205.5844"
     inkscape:window-width="2554"
     inkscape:window-height="1482"
     inkscape:window-x="322"
     inkscape:window-y="48"
     inkscape:window-maximized="0"
     inkscape:current-layer="layer1" />
  <defs
     id="defs233" />
  <g
     inkscape:label="Layer 1"
     inkscape:groupmode="layer"
     id="layer1">
    <path
       style="fill:none;stroke:#00ff00;stroke-width:0.277878px;stroke-linecap:butt;stroke-linejoin:miter;stroke-opacity:1"
       d="M 133.70515,71.500518 V 65.679685"
       id="path5020" />
    <path
       style="fill:none;stroke:#00ff00;stroke-width:0.277878px;stroke-linecap:butt;stroke-linejoin:miter;stroke-opacity:1"
       d="M 133.56621,53.53491 V 47.714076"
       id="path5022" />
    <circle
       style="fill:#000000;stroke:none;stroke-width:9.74527;stroke-linecap:round;stroke-linejoin:round;stroke-dasharray:none"
       id="path1094"
       cx="53.055607"
       cy="80.9776"
       r="9.4770823" />
    <path
       id="path292"
       style="color:#000000;fill:#000000;fill-opacity:1;stroke-width:2.08662;stroke-linecap:round;stroke-linejoin:round"
       d="M 36.625671 19.659782 C 25.385808 22.604723 15.328553 28.511664 7.3458049 36.494413 L 7.3458049 36.495447 L 7.3483887 36.498031 A 6.0729262 6.0729262 0 0 0 5.4317098 40.924634 A 6.0729262 6.0729262 0 0 0 11.504724 46.997131 A 6.0729262 6.0729262 0 0 0 16.383496 44.538883 C 22.797229 38.295454 30.812395 33.6893 39.765531 31.378963 L 36.625671 19.659782 z M 69.472245 19.710425 L 66.333419 31.424955 C 75.448918 33.810846 83.584434 38.578071 90.036882 45.030326 A 6.0729262 6.0729262 0 0 0 90.037398 45.030326 A 6.0729262 6.0729262 0 0 0 94.328609 46.81213 A 6.0729262 6.0729262 0 0 0 100.40162 40.739115 A 6.0729262 6.0729262 0 0 0 97.875163 35.814351 C 90.050539 28.219842 80.315104 22.586579 69.472245 19.710425 z M 41.27345 37.00601 C 32.954909 39.141305 25.509009 43.494395 19.608622 49.393884 L 19.612756 49.396985 A 6.0729262 6.0729262 0 0 0 17.695044 53.823588 A 6.0729262 6.0729262 0 0 0 23.768058 59.896602 A 6.0729262 6.0729262 0 0 0 28.637012 57.445589 C 32.969221 53.280491 38.37604 50.224038 44.412793 48.721057 L 41.27345 37.00601 z M 64.828601 37.040633 L 61.689775 48.75568 C 67.613203 50.254993 72.925696 53.250021 77.204073 57.321566 A 6.0729262 6.0729262 0 0 0 82.065275 59.76121 A 6.0729262 6.0729262 0 0 0 88.138289 53.688196 A 6.0729262 6.0729262 0 0 0 86.359587 49.394401 A 6.0729262 6.0729262 0 0 0 86.359587 49.393884 C 86.352987 49.387284 86.346053 49.380867 86.339433 49.374247 A 6.0729262 6.0729262 0 0 0 86.273287 49.309652 C 80.418374 43.484655 73.052916 39.177877 64.828601 37.040633 z M 45.931563 54.390479 C 40.460938 55.724575 35.559103 58.555049 31.692122 62.42203 L 31.692122 62.423063 L 31.694706 62.425647 A 6.072926 6.072926 0 0 0 29.912903 66.716858 A 6.072926 6.072926 0 0 0 35.985917 72.789872 A 6.072926 6.072926 0 0 0 40.811979 70.397253 C 43.096014 68.310178 45.925787 66.810943 49.07349 66.115861 L 45.931563 54.390479 z M 60.179789 54.390479 L 57.037862 66.115861 C 60.186872 66.811171 63.017426 68.3113 65.30144 70.399837 A 6.072926 6.072926 0 0 0 70.125435 72.789355 A 6.072926 6.072926 0 0 0 76.19845 66.716341 A 6.072926 6.072926 0 0 0 74.41923 62.422546 L 74.419747 62.42203 C 74.40132 62.403604 74.38241 62.385632 74.363936 62.367253 A 6.072926 6.072926 0 0 0 74.354118 62.357951 C 70.497154 58.524166 65.619733 55.717323 60.179789 54.390479 z " />
    <path
       style="fill:none;stroke:#00ff00;stroke-width:0.277878px;stroke-linecap:butt;stroke-linejoin:miter;stroke-opacity:1"
       d="M 133.56621,35.531471 V 29.710637"
       id="path5026" />
    <text
       xml:space="preserve"
       style="font-style:normal;font-weight:normal;font-size:137.88px;line-height:1.25;font-family:sans-serif;fill:#000000;fill-opacity:1;stroke:none;stroke-width:3.44699"
       x="65.280792"
       y="127.37627"
       id="text1123"
       transform="scale(1.4778835,0.67664331)"><tspan
         sodipodi:role="line"
         id="tspan1121"
         style="stroke-width:3.44699"
         x="65.280792"
         y="127.37627">!</tspan></text>
    <path
       id="path1128"
       style="fill:#000000;stroke:none;stroke-width:4.14641;stroke-linecap:round;stroke-linejoin:bevel;stroke-dasharray:none;stroke-opacity:1;fill-opacity:1"
       d="M 40.123132 13.603821 L 53.161613 62.264933 L 66.200094 13.603821 L 40.123132 13.603821 z " />
    <circle
       style="fill:#000000;fill-opacity:1;stroke:none;stroke-width:8.98879;stroke-linecap:round;stroke-linejoin:round;stroke-dasharray:none"
       id="circle1135"
       cx="121.73129"
       cy="-15.634271"
       r="8.7414274" />
  </g>
</svg>
