<?xml version="1.0" encoding="UTF-8" standalone="no"?>
<!-- Created with Inkscape (http://www.inkscape.org/) -->

<svg
   width="400"
   height="400"
   viewBox="0 0 105.83333 105.83333"
   version="1.1"
   id="svg236"
   inkscape:version="1.2.2 (b0a8486541, 2022-12-01)"
   sodipodi:docname="wifi-3.svg"
   xmlns:inkscape="http://www.inkscape.org/namespaces/inkscape"
   xmlns:sodipodi="http://sodipodi.sourceforge.net/DTD/sodipodi-0.dtd"
   xmlns="http://www.w3.org/2000/svg"
   xmlns:svg="http://www.w3.org/2000/svg">
  <sodipodi:namedview
     id="namedview238"
     pagecolor="#505050"
     bordercolor="#eeeeee"
     borderopacity="1"
     inkscape:showpageshadow="0"
     inkscape:pageopacity="0"
     inkscape:pagecheckerboard="0"
     inkscape:deskcolor="#505050"
     inkscape:document-units="mm"
     showgrid="false"
     inkscape:zoom="0.64693625"
     inkscape:cx="-207.13015"
     inkscape:cy="142.98163"
     inkscape:window-width="1706"
     inkscape:window-height="960"
     inkscape:window-x="0"
     inkscape:window-y="0"
     inkscape:window-maximized="1"
     inkscape:current-layer="layer1" />
  <defs
     id="defs233" />
  <g
     inkscape:label="Layer 1"
     inkscape:groupmode="layer"
     id="layer1">
    <path
       id="path282"
       style="stroke-width:9.74527;stroke-linecap:round;stroke-linejoin:round"
       d="M 52.959558 17.561719 C 35.171899 17.561719 19.035483 24.804733 7.3458049 36.494413 L 7.3458049 36.495447 L 7.3483887 36.498031 A 6.0729262 6.0729262 0 0 0 5.4317098 40.924634 A 6.0729262 6.0729262 0 0 0 11.504724 46.997131 A 6.0729262 6.0729262 0 0 0 16.383496 44.538883 C 25.815675 35.357157 38.708433 29.710848 52.960075 29.710848 C 67.465417 29.710848 80.563934 35.55766 90.036882 45.030326 A 6.0729262 6.0729262 0 0 0 90.037398 45.030326 A 6.0729262 6.0729262 0 0 0 94.328609 46.81213 A 6.0729262 6.0729262 0 0 0 100.40162 40.739115 A 6.0729262 6.0729262 0 0 0 97.875163 35.814351 C 86.245231 24.526443 70.397967 17.561719 52.959558 17.561719 z M 52.98488 35.531681 C 39.97645 35.531683 28.166953 40.836855 19.608622 49.393884 L 19.612756 49.396985 A 6.0729262 6.0729262 0 0 0 17.695044 53.823588 A 6.0729262 6.0729262 0 0 0 23.768058 59.896602 A 6.0729262 6.0729262 0 0 0 28.637012 57.445589 C 34.936638 51.388965 43.508113 47.67616 52.985396 47.67616 C 62.397923 47.67616 70.916746 51.33819 77.204073 57.321566 A 6.0729262 6.0729262 0 0 0 82.065275 59.76121 A 6.0729262 6.0729262 0 0 0 88.138289 53.688196 A 6.0729262 6.0729262 0 0 0 86.359587 49.394401 A 6.0729262 6.0729262 0 0 0 86.359587 49.393884 C 86.352987 49.387284 86.346053 49.380867 86.339433 49.374247 A 6.0729262 6.0729262 0 0 0 86.273287 49.309652 C 77.722486 40.802542 65.950656 35.531681 52.985396 35.531681 L 52.98488 35.531681 z M 53.056193 53.534717 C 44.738468 53.534717 37.175643 56.938509 31.692122 62.42203 L 31.692122 62.423063 L 31.694706 62.425647 A 6.072926 6.072926 0 0 0 29.912903 66.716858 A 6.072926 6.072926 0 0 0 35.985917 72.789872 A 6.072926 6.072926 0 0 0 40.811979 70.397253 C 44.025014 67.461288 48.314787 65.679714 53.056193 65.679712 C 57.798926 65.679712 62.089077 67.462404 65.30144 70.399837 A 6.072926 6.072926 0 0 0 70.125435 72.789355 A 6.072926 6.072926 0 0 0 76.19845 66.716341 A 6.072926 6.072926 0 0 0 74.41923 62.422546 L 74.419747 62.42203 C 74.405453 62.407736 74.390661 62.39392 74.376339 62.379655 C 74.372198 62.375531 74.36808 62.371375 74.363936 62.367253 A 6.072926 6.072926 0 0 0 74.354118 62.357951 C 68.875951 56.912705 61.340863 53.534719 53.056193 53.534717 z M 53.055676 71.500545 A 9.4770823 9.4770823 0 0 0 43.578735 80.977486 A 9.4770823 9.4770823 0 0 0 53.055676 90.454427 A 9.4770823 9.4770823 0 0 0 62.532617 80.977486 A 9.4770823 9.4770823 0 0 0 53.055676 71.500545 z " />
  </g>
</svg>
