<?xml version="1.0" encoding="UTF-8" standalone="no"?>
<!-- Created with Inkscape (http://www.inkscape.org/) -->

<svg
   width="400"
   height="400"
   viewBox="0 0 105.83333 105.83333"
   version="1.1"
   id="svg236"
   inkscape:version="1.2.2 (b0a8486541, 2022-12-01)"
   sodipodi:docname="wifi-1.svg"
   xmlns:inkscape="http://www.inkscape.org/namespaces/inkscape"
   xmlns:sodipodi="http://sodipodi.sourceforge.net/DTD/sodipodi-0.dtd"
   xmlns="http://www.w3.org/2000/svg"
   xmlns:svg="http://www.w3.org/2000/svg">
  <sodipodi:namedview
     id="namedview238"
     pagecolor="#505050"
     bordercolor="#eeeeee"
     borderopacity="1"
     inkscape:showpageshadow="0"
     inkscape:pageopacity="0"
     inkscape:pagecheckerboard="0"
     inkscape:deskcolor="#505050"
     inkscape:document-units="mm"
     showgrid="false"
     inkscape:zoom="0.914906"
     inkscape:cx="95.091736"
     inkscape:cy="187.45095"
     inkscape:window-width="1706"
     inkscape:window-height="960"
     inkscape:window-x="0"
     inkscape:window-y="0"
     inkscape:window-maximized="1"
     inkscape:current-layer="layer1" />
  <defs
     id="defs233" />
  <g
     inkscape:label="Layer 1"
     inkscape:groupmode="layer"
     id="layer1">
    <path
       id="path244"
       style="stroke-width:9.74527;stroke-linecap:round;stroke-linejoin:round"
       d="M 53.056193 53.534717 C 44.738476 53.534717 37.175638 56.938514 31.692122 62.42203 L 31.692122 62.423063 L 31.694706 62.425647 A 6.072926 6.072926 0 0 0 29.912903 66.716858 A 6.072926 6.072926 0 0 0 35.985917 72.789872 A 6.072926 6.072926 0 0 0 40.811979 70.397253 C 44.025011 67.461291 48.314792 65.679714 53.056193 65.679712 C 57.798921 65.679712 62.089081 67.462407 65.30144 70.399837 A 6.072926 6.072926 0 0 0 70.125435 72.789355 A 6.072926 6.072926 0 0 0 76.19845 66.716341 A 6.072926 6.072926 0 0 0 74.41923 62.422546 L 74.419747 62.42203 C 74.40132 62.403604 74.38241 62.385632 74.363936 62.367253 A 6.072926 6.072926 0 0 0 74.354118 62.357951 C 68.875956 56.91271 61.340855 53.534719 53.056193 53.534717 z M 53.055676 71.500545 A 9.4770823 9.4770823 0 0 0 43.578735 80.977486 A 9.4770823 9.4770823 0 0 0 53.055676 90.454427 A 9.4770823 9.4770823 0 0 0 62.532617 80.977486 A 9.4770823 9.4770823 0 0 0 53.055676 71.500545 z " />
  </g>
</svg>
